<svg width="48" height="48" viewBox="0 0 48 48" fill="none" xmlns="http://www.w3.org/2000/svg">
<path fill-rule="evenodd" clip-rule="evenodd" d="M12 17.5C12 16.6716 12.6716 16 13.5 16H34.5C35.3284 16 36 16.6716 36 17.5C36 18.3284 35.3284 19 34.5 19H13.5C12.6716 19 12 18.3284 12 17.5ZM12 24C12 23.1716 12.6716 22.5 13.5 22.5H34.5C35.3284 22.5 36 23.1716 36 24C36 24.8284 35.3284 25.5 34.5 25.5H13.5C12.6716 25.5 12 24.8284 12 24ZM12 30.5C12 29.6716 12.6716 29 13.5 29H34.5C35.3284 29 36 29.6716 36 30.5C36 31.3284 35.3284 32 34.5 32H13.5C12.6716 32 12 31.3284 12 30.5Z" fill="white"/>
</svg>
