<svg width="48" height="48" viewBox="0 0 48 48" fill="none" xmlns="http://www.w3.org/2000/svg">
<path d="M16.4473 16.4473C16.7338 16.1609 17.1223 16 17.5273 16C17.9324 16 18.3209 16.1609 18.6074 16.4473L24.0092 21.8491L29.411 16.4473C29.6992 16.169 30.0851 16.015 30.4856 16.0185C30.8862 16.022 31.2693 16.1826 31.5526 16.4659C31.8358 16.7491 31.9965 17.1323 31.9999 17.5328C32.0034 17.9334 31.8494 18.3193 31.5712 18.6074L26.1693 24.0092L31.5712 29.411C31.8494 29.6992 32.0034 30.0851 31.9999 30.4856C31.9965 30.8862 31.8358 31.2693 31.5526 31.5526C31.2693 31.8358 30.8862 31.9965 30.4856 31.9999C30.0851 32.0034 29.6992 31.8494 29.411 31.5712L24.0092 26.1693L18.6074 31.5712C18.3193 31.8494 17.9334 32.0034 17.5328 31.9999C17.1323 31.9965 16.7491 31.8358 16.4659 31.5526C16.1826 31.2693 16.022 30.8862 16.0185 30.4856C16.015 30.0851 16.169 29.6992 16.4473 29.411L21.8491 24.0092L16.4473 18.6074C16.1609 18.3209 16 17.9324 16 17.5273C16 17.1223 16.1609 16.7338 16.4473 16.4473Z" fill="white"/>
</svg>
