<svg width="28" height="28" viewBox="0 0 28 28" fill="none" xmlns="http://www.w3.org/2000/svg">
<g id="Frame 48095576">
<g id="Vector">
<path d="M3.01953 20.5882L5.76463 22.1941V18.9L3.01953 17.2941V20.5882Z" fill="#FB9900"/>
<path d="M5.76463 15.6059L3.01953 14V17.2941L5.76463 18.9V15.6059Z" fill="#FFAA01"/>
<path d="M3.01953 10.7059V14L5.76463 15.6059V12.3118L3.01953 10.7059Z" fill="#FFBD20"/>
<path d="M5.76463 9.01763L3.01953 7.41175V10.7059L5.76463 12.3118V9.01763Z" fill="#FC9900"/>
<path d="M8.50973 10.6235L5.76463 9.01763V12.3118L8.50973 13.9176V10.6235Z" fill="#FDAB01"/>
<path d="M5.76463 15.6059L8.50973 17.2118V13.9176L5.76463 12.3118V15.6059Z" fill="#FC9900"/>
<path d="M5.76463 18.9L8.50973 20.5059V17.2118L5.76463 15.6059V18.9Z" fill="#FFAA01"/>
<path d="M5.76463 22.1941L8.50973 23.8V20.5059L5.76463 18.9V22.1941Z" fill="#FFB305"/>
<path d="M8.50973 23.8L11.2548 25.4059V22.1118L8.50973 20.5059V23.8Z" fill="#FD9800"/>
<path d="M11.2548 18.8176L8.50973 17.2118V20.5059L11.2548 22.1118V18.8176Z" fill="#FFBD1E"/>
<path d="M11.2548 15.5235L8.50973 13.9176V17.2118L11.2548 18.8176V15.5235Z" fill="#FFB305"/>
<path d="M11.2548 12.2294L8.50973 10.6235V13.9176L11.2548 15.5235V12.2294Z" fill="#FFAA01"/>
<path d="M13.9999 13.8353L11.2548 12.2294V15.5235L13.9999 17.1294V13.8353Z" fill="#FA9800"/>
<path d="M13.9999 20.4235V17.1294L11.2548 15.5235V18.8176L13.9999 20.4235Z" fill="#FFAA01"/>
<path d="M13.9999 23.7176V20.4235L11.2548 18.8176V22.1118L13.9999 23.7176Z" fill="#FCAB01"/>
<path d="M11.2548 25.4059L13.9999 27.0118V23.7176L11.2548 22.1118V25.4059Z" fill="#FFAA01"/>
<path d="M13.9999 27.0118L16.745 25.4059V22.1118L13.9999 23.7176V27.0118Z" fill="#DE7F01"/>
<path d="M16.745 18.8176L13.9999 20.4235V23.7176L16.745 22.1118V18.8176Z" fill="#D17100"/>
<path d="M13.9999 17.1294V20.4235L16.745 18.8176V15.5235L13.9999 17.1294Z" fill="#E48800"/>
<path d="M16.745 12.2294L13.9999 13.8353V17.1294L16.745 15.5235V12.2294Z" fill="#CB7400"/>
<path d="M19.4901 13.9176V10.6235L16.745 12.2294V15.5235L19.4901 13.9176Z" fill="#D08301"/>
<path d="M16.745 18.8176L19.4901 17.2118V13.9176L16.745 15.5235V18.8176Z" fill="#CB7400"/>
<path d="M16.745 22.1118L19.4901 20.5059V17.2118L16.745 18.8176V22.1118Z" fill="#D17D00"/>
<path d="M22.2352 22.1941V18.9L19.4901 20.5059V23.8L22.2352 22.1941Z" fill="#D68100"/>
<path d="M16.745 25.4059L19.4901 23.8V20.5059L16.745 22.1118V25.4059Z" fill="#C47000"/>
<path d="M22.2352 15.6059L19.4901 17.2118V20.5059L22.2352 18.9V15.6059Z" fill="#C96F01"/>
<path d="M22.2352 12.3118L19.4901 13.9176V17.2118L22.2352 15.6059V12.3118Z" fill="#DB7D01"/>
<path d="M22.2352 9.01763L19.4901 10.6235V13.9176L22.2352 12.3118V9.01763Z" fill="#E58A01"/>
<path d="M24.9803 7.41175L22.2352 9.01763V12.3118L24.9803 10.7059V7.41175Z" fill="#C77B01"/>
<path d="M24.9803 14V10.7059L22.2352 12.3118V15.6059L24.9803 14Z" fill="#E68A01"/>
<path d="M24.9803 17.2941V14L22.2352 15.6059V18.9L24.9803 17.2941Z" fill="#CD7400"/>
<path d="M22.2352 22.1941L24.9803 20.5882V17.2941L22.2352 18.9V22.1941Z" fill="#C96E01"/>
<path d="M22.2352 9.01763L24.9803 7.41175L22.2352 5.80587L19.4901 7.41175L22.2352 9.01763Z" fill="#FFE65E"/>
<path d="M19.4901 4.19999L16.745 5.80587L19.4901 7.41175L22.2352 5.80587L19.4901 4.19999Z" fill="#FFDB2F"/>
<path d="M19.4901 4.19999L16.745 2.5941L13.9999 4.19999L16.745 5.80587L19.4901 4.19999Z" fill="#FFE368"/>
<path d="M11.2548 5.80587L13.9999 7.41175L16.745 5.80587L13.9999 4.19999L11.2548 5.80587Z" fill="#FFDB2F"/>
<path d="M8.50973 7.41175L11.2548 9.01763L13.9999 7.41175L11.2548 5.80587L8.50973 7.41175Z" fill="#FEEA29"/>
<path d="M5.76463 9.01763L8.50973 10.6235L11.2548 9.01763L8.50973 7.41175L5.76463 9.01763Z" fill="#FFDB2F"/>
<path d="M8.50973 10.6235L11.2548 12.2294L13.9999 10.6235L11.2548 9.01763L8.50973 10.6235Z" fill="#FFE65D"/>
<path d="M16.745 9.01763L13.9999 7.41175L11.2548 9.01763L13.9999 10.6235L16.745 9.01763Z" fill="#FFE65D"/>
<path d="M19.4901 7.41175L16.745 5.80587L13.9999 7.41175L16.745 9.01763L19.4901 7.41175Z" fill="#FFE368"/>
<path d="M19.4901 10.6235L22.2352 9.01763L19.4901 7.41175L16.745 9.01763L19.4901 10.6235Z" fill="#FFDB2D"/>
<path d="M16.745 12.2294L19.4901 10.6235L16.745 9.01763L13.9999 10.6235L16.745 12.2294Z" fill="#FEEA29"/>
<path d="M11.2548 12.2294L13.9999 13.8353L16.745 12.2294L13.9999 10.6235L11.2548 12.2294Z" fill="#FEEA29"/>
<path d="M3.01953 7.41175L5.76463 9.01763L8.50973 7.41175L5.76463 5.80587L3.01953 7.41175Z" fill="#FEEA29"/>
<path d="M8.50973 4.19999L5.76463 5.80587L8.50973 7.41175L11.2548 5.80587L8.50973 4.19999Z" fill="#FFE65D"/>
<path d="M11.2548 2.5941L8.50973 4.19999L11.2548 5.80587L13.9999 4.19999L11.2548 2.5941Z" fill="#FFE368"/>
<path d="M16.745 2.5941L13.9999 0.98822L11.2548 2.5941L13.9999 4.19999L16.745 2.5941Z" fill="#FFDB2F"/>
</g>
</g>
</svg>
