<svg width="48" height="48" viewBox="0 0 48 48" fill="none" xmlns="http://www.w3.org/2000/svg">
<path d="M24 44C35.0457 44 44 35.0457 44 24C44 12.9543 35.0457 4 24 4C12.9543 4 4 12.9543 4 24C4 35.0457 12.9543 44 24 44Z" fill="black"/>
<path d="M14.0006 12.0002C15.5006 12.0002 16.6672 12.6668 17.8339 13.6668C18.1672 14.0002 18.5006 14.3335 18.8339 14.6668C19.3339 15.1668 19.8339 15.1668 20.5006 15.1668C21.6672 15.0002 22.6672 14.6668 23.8339 14.6668C24.1672 14.6668 24.5006 14.6668 24.8339 14.8335C25.6672 15.1668 26.3339 15.0002 27.1672 14.6668C28.3339 14.0002 29.6672 13.3335 30.8339 12.8335C32.0006 12.3335 33.1672 11.8335 34.5006 11.8335C35.8339 11.8335 36.6672 12.5002 37.3339 13.5002C37.6672 14.0002 37.5006 14.5002 37.3339 15.0002C37.0006 16.5002 36.1672 17.5002 34.8339 18.1668C34.1672 18.5002 33.6672 18.8335 33.0006 19.1668C32.0006 19.5002 31.5006 20.3335 31.3339 21.3335C30.8339 24.3335 30.3339 27.1668 29.5006 30.0002C28.8339 32.1668 28.0006 34.1668 26.6672 35.8335C25.3339 37.3335 23.8339 38.3335 21.8339 38.3335C20.8339 38.3335 20.1672 37.6668 19.5006 37.1668C18.1672 36.0002 17.6672 34.5002 17.3339 33.0002C17.1672 32.1668 17.0006 31.3335 17.0006 30.5002C17.3339 27.3335 16.8339 24.6668 16.1672 22.0002C16.0006 21.3335 15.6672 20.5002 15.5006 19.8335C15.5006 19.0002 14.8339 18.3335 14.3339 17.8335C13.6672 17.3335 13.0006 16.8335 12.5006 16.1668C11.6672 15.1668 11.5006 14.0002 12.1672 12.8335C12.5006 12.1668 13.0006 12.0002 14.0006 12.0002Z" fill="#FEFEFE"/>
<path d="M19.834 34.8335C19.834 33.1668 20.5007 32.0002 21.834 31.5002C23.1673 31.0002 24.6673 31.6668 25.334 32.8335C26.0007 34.0002 25.5007 35.3335 24.334 36.3335C23.6673 36.8335 23.0007 37.1668 22.1673 37.1668C21.0007 37.3335 19.834 36.6668 19.834 34.8335Z" fill="black"/>
<path d="M24.834 23.5002C25.0007 22.5002 25.334 21.5002 26.334 20.8335C27.0007 20.3335 27.6673 20.5002 28.1673 21.1668C29.0007 22.3335 29.334 23.6668 28.6673 25.0002C28.334 25.6668 27.834 26.0002 27.1673 25.8335C26.834 25.8335 26.5007 25.6668 26.0007 25.6668C25.334 25.3335 24.834 24.6668 24.834 23.5002Z" fill="black"/>
<path d="M19.502 24.8334C18.3353 24.8334 17.8353 23.8334 18.002 22.8334C18.002 22.5001 18.1686 22.3334 18.1686 22.0001C18.502 21.0001 19.6686 20.8334 20.502 21.5001C21.3353 22.1668 21.3353 23.6668 20.502 24.3334C20.1686 24.8334 19.8353 25.0001 19.502 24.8334Z" fill="black"/>
<path d="M29.1683 17.5C29.0016 17.5 29.0016 17.5 29.0016 17.3334C29.0016 17 28.6683 17 28.5016 17C28.335 17 28.335 16.8334 28.335 16.6667C28.335 16.5 28.5016 16.5 28.6683 16.5C28.835 16.5 29.1683 16.5 29.1683 16.1667C29.1683 15.8334 29.0016 15.6667 28.835 15.6667C28.6683 15.6667 28.5016 15.5 28.6683 15.3334C28.6683 15.1667 28.835 15.1667 29.0016 15.1667C29.335 15.1667 29.6683 15.1667 30.0016 14.8334C30.1683 14.6667 30.335 14.8334 30.5016 15C30.6683 15.1667 30.5016 15.1667 30.5016 15.3334C30.5016 15.6667 30.0016 15.6667 29.835 16C29.6683 16.3334 29.6683 16.6667 29.6683 17.1667C29.5016 17.3334 29.5016 17.5 29.1683 17.5Z" fill="#040404"/>
</svg>
