<svg width="48" height="48" viewBox="0 0 48 48" fill="none" xmlns="http://www.w3.org/2000/svg">
<circle cx="24" cy="24" r="20" fill="white"/>
<g clip-path="url(#clip0_218_8714)">
<path d="M23.9975 10.6665L23.8154 11.2742V28.9066L23.9975 29.0851L32.3282 24.2471L23.9975 10.6665Z" fill="#343434"/>
<path d="M23.9969 10.6665L15.666 24.2471L23.9969 29.0851V20.5268V10.6665Z" fill="#8C8C8C"/>
<path d="M23.9962 30.6346L23.8936 30.7576V37.0385L23.9962 37.3329L32.332 25.7991L23.9962 30.6346Z" fill="#3C3C3B"/>
<path d="M23.9969 37.333V30.6347L15.666 25.7992L23.9969 37.333Z" fill="#8C8C8C"/>
<path d="M23.9961 29.0852L32.3268 24.2472L23.9961 20.5269V29.0852Z" fill="#141414"/>
<path d="M15.666 24.2471L23.9969 29.0851V20.5268L15.666 24.2471Z" fill="#393939"/>
</g>
<defs>
<clipPath id="clip0_218_8714">
<rect width="16.6667" height="26.6667" fill="white" transform="translate(15.667 10.6667)"/>
</clipPath>
</defs>
</svg>
