<svg width="20" height="20" viewBox="0 0 20 20" fill="none" xmlns="http://www.w3.org/2000/svg">
<path fill-rule="evenodd" clip-rule="evenodd" d="M18.1093 1.89155C18.3533 2.13563 18.3533 2.53136 18.1093 2.77544L11.2759 9.60877C11.0318 9.85285 10.6361 9.85285 10.392 9.60877C10.148 9.36469 10.148 8.96896 10.392 8.72489L17.2254 1.89155C17.4695 1.64748 17.8652 1.64748 18.1093 1.89155Z" fill="white"/>
<path fill-rule="evenodd" clip-rule="evenodd" d="M13.709 1.66675C13.709 1.32157 13.9888 1.04175 14.334 1.04175H18.334C18.6792 1.04175 18.959 1.32157 18.959 1.66675V5.66675C18.959 6.01193 18.6792 6.29175 18.334 6.29175C17.9888 6.29175 17.709 6.01193 17.709 5.66675V2.29175H14.334C13.9888 2.29175 13.709 2.01193 13.709 1.66675Z" fill="white"/>
<path fill-rule="evenodd" clip-rule="evenodd" d="M2.57922 2.57897C3.69127 1.46692 5.35535 1.04175 7.50033 1.04175H9.16699C9.51217 1.04175 9.79199 1.32157 9.79199 1.66675C9.79199 2.01193 9.51217 2.29175 9.16699 2.29175H7.50033C5.47864 2.29175 4.22604 2.69991 3.4631 3.46286C2.70016 4.2258 2.29199 5.47839 2.29199 7.50008V12.5001C2.29199 14.5218 2.70016 15.7744 3.4631 16.5373C4.22604 17.3002 5.47864 17.7084 7.50033 17.7084H12.5003C14.522 17.7084 15.7746 17.3002 16.5375 16.5373C17.3005 15.7744 17.7087 14.5218 17.7087 12.5001V10.8334C17.7087 10.4882 17.9885 10.2084 18.3337 10.2084C18.6788 10.2084 18.9587 10.4882 18.9587 10.8334V12.5001C18.9587 14.6451 18.5335 16.3091 17.4214 17.4212C16.3094 18.5332 14.6453 18.9584 12.5003 18.9584H7.50033C5.35535 18.9584 3.69127 18.5332 2.57922 17.4212C1.46716 16.3091 1.04199 14.6451 1.04199 12.5001V7.50008C1.04199 5.3551 1.46716 3.69103 2.57922 2.57897Z" fill="white"/>
</svg>
