<svg width="40" height="40" viewBox="0 0 40 40" fill="none" xmlns="http://www.w3.org/2000/svg">
<path fill-rule="evenodd" clip-rule="evenodd" d="M16.4574 5.48574C12.3882 6.47087 8.54045 9.59806 6.71352 13.4048C4.52883 17.9567 4.53789 21.9899 6.74283 26.6075C9.64598 32.6874 16.4931 36.0035 23.2653 34.6092C27.192 33.8007 31.5177 30.4623 33.2623 26.8939C34.1632 25.051 34.9225 22.2965 34.9291 20.8476C34.9336 19.8446 34.7022 19.7972 32.1184 20.2727C29.2707 20.7964 26.8558 22.1308 24.5771 24.4394C22.2507 26.7964 21.2799 28.4369 20.5639 31.2212C20.0436 33.2439 19.9983 33.2362 19.4855 31.0371C18.9865 28.8975 17.3749 26.1307 15.5783 24.3301C13.7261 22.4734 10.3333 20.6379 8.21785 20.3478C6.95461 20.1747 6.72658 19.7154 7.90377 19.7154C10.0634 19.7154 14.6885 16.9796 16.585 14.5804C18.5542 12.0891 19.9996 8.43925 20.0111 5.92955C20.0148 5.10214 19.9709 5.06484 19.0161 5.08589C18.4668 5.09814 17.3152 5.27796 16.4574 5.48574ZM30.2712 6.76923C27.4091 7.67683 25.0696 9.40386 23.4819 11.7812C22.3322 13.5031 21.347 16.272 21.347 17.7819V18.7228L23.0357 18.5872C26.2002 18.3331 29.8309 16.0251 31.7364 13.0558C32.7444 11.4847 33.6011 8.90357 33.6011 7.43761V6.39574L32.469 6.41359C31.8461 6.42345 30.8573 6.58355 30.2712 6.76923Z" fill="#85E047"/>
</svg>
