<svg width="20" height="20" viewBox="0 0 20 20" fill="none" xmlns="http://www.w3.org/2000/svg">
<path d="M11.006 2.49859C10.7207 2.26974 10.366 2.14502 10.0003 2.14502C9.63458 2.14502 9.27981 2.26974 8.99457 2.49859L3.45885 6.9393C3.27115 7.08989 3.11965 7.28072 3.01556 7.49768C2.91146 7.71465 2.85742 7.95223 2.85742 8.19287V16.25C2.85742 16.6763 3.02675 17.085 3.32814 17.3864C3.62954 17.6878 4.03832 17.8572 4.46456 17.8572H6.25028C6.67652 17.8572 7.0853 17.6878 7.3867 17.3864C7.6881 17.085 7.85742 16.6763 7.85742 16.25V12.3214C7.85742 11.8286 8.25742 11.4286 8.75028 11.4286H11.2503C11.7431 11.4286 12.1431 11.8286 12.1431 12.3214V16.25C12.1431 16.6763 12.3125 17.085 12.6139 17.3864C12.9153 17.6878 13.324 17.8572 13.7503 17.8572H15.536C15.9622 17.8572 16.371 17.6878 16.6724 17.3864C16.9738 17.085 17.1431 16.6763 17.1431 16.25V8.19287C17.1431 7.95223 17.0891 7.71465 16.985 7.49768C16.8809 7.28072 16.7294 7.08989 16.5417 6.9393L11.006 2.49859Z" fill="#818181"/>
</svg>
