<svg width="18" height="18" viewBox="0 0 18 18" fill="none" xmlns="http://www.w3.org/2000/svg">
<path d="M8.23902 13.2709C8.31768 13.3493 8.38009 13.4424 8.42268 13.545C8.46527 13.6475 8.48719 13.7575 8.48719 13.8685C8.48719 13.9796 8.46527 14.0895 8.42268 14.1921C8.38009 14.2947 8.31768 14.3878 8.23902 14.4662L7.87902 14.8262C7.49687 15.2098 7.04247 15.5138 6.5421 15.7206C6.04172 15.9275 5.50531 16.0331 4.96386 16.0313C4.14847 16.0316 3.35132 15.79 2.67327 15.3371C1.99521 14.8843 1.46672 14.2404 1.15464 13.4871C0.842571 12.7338 0.760945 11.9049 0.920092 11.1052C1.07924 10.3054 1.47201 9.57091 2.04871 8.99447L4.49207 6.55111C5.01177 6.03148 5.66092 5.66021 6.3723 5.47572C7.08369 5.29123 7.83146 5.30024 8.53819 5.5018C9.24493 5.70337 9.88494 6.09017 10.392 6.62216C10.899 7.15415 11.2547 7.812 11.4221 8.5276C11.4498 8.6364 11.4555 8.74964 11.4389 8.86069C11.4223 8.97174 11.3837 9.07835 11.3254 9.17429C11.2671 9.27023 11.1902 9.35356 11.0992 9.41941C11.0083 9.48525 10.9051 9.53227 10.7957 9.55773C10.6864 9.58318 10.573 9.58656 10.4624 9.56765C10.3517 9.54874 10.2459 9.50794 10.1512 9.44762C10.0565 9.38731 9.97478 9.30869 9.91084 9.21639C9.84691 9.12409 9.80204 9.01996 9.77886 8.9101C9.67952 8.48768 9.46916 8.09946 9.16953 7.78558C8.8699 7.47169 8.49187 7.24353 8.07453 7.12467C7.65718 7.00582 7.21566 7.00059 6.79562 7.10953C6.37558 7.21846 5.99225 7.43761 5.68527 7.74432L3.24191 10.1877C2.90132 10.528 2.6693 10.9617 2.5752 11.4338C2.48109 11.906 2.52912 12.3955 2.71321 12.8404C2.89731 13.2853 3.2092 13.6656 3.60944 13.9332C4.00968 14.2008 4.48029 14.3437 4.96175 14.3438C5.28166 14.3448 5.59858 14.2823 5.89416 14.1599C6.18974 14.0375 6.4581 13.8577 6.68371 13.6309L7.043 13.2709C7.12141 13.1921 7.21459 13.1296 7.31722 13.087C7.41984 13.0443 7.52988 13.0224 7.64101 13.0224C7.75215 13.0224 7.86219 13.0443 7.96481 13.087C8.06743 13.1296 8.16062 13.1921 8.23902 13.2709ZM15.9488 3.17611C15.1755 2.40304 14.1268 1.96875 13.0333 1.96875C11.9398 1.96875 10.8911 2.40304 10.1178 3.17611L9.75847 3.53541C9.59997 3.69392 9.51092 3.9089 9.51092 4.13307C9.51092 4.35723 9.59997 4.57221 9.75847 4.73072C9.91698 4.88923 10.132 4.97828 10.3561 4.97828C10.5803 4.97828 10.7953 4.88923 10.9538 4.73072L11.3138 4.37072C11.7707 3.91384 12.3903 3.65717 13.0364 3.65717C13.6826 3.65717 14.3022 3.91384 14.7591 4.37072C15.216 4.8276 15.4726 5.44726 15.4726 6.09338C15.4726 6.7395 15.216 7.35916 14.7591 7.81603L12.3115 10.2559C12.0859 10.4827 11.8175 10.6625 11.522 10.7849C11.2264 10.9073 10.9095 10.9698 10.5896 10.9688C10.0408 10.9685 9.50821 10.7827 9.07823 10.4417C8.64826 10.1007 8.34609 9.62438 8.22074 9.0901C8.17002 8.8721 8.03477 8.68318 7.84476 8.5649C7.65475 8.44662 7.42553 8.40867 7.20754 8.45939C6.98954 8.51012 6.80062 8.64536 6.68234 8.83537C6.56406 9.02538 6.52611 9.2546 6.57683 9.4726C6.78855 10.3774 7.29972 11.1842 8.02745 11.7621C8.75517 12.34 9.65678 12.6551 10.5861 12.6563H10.5896C11.1313 12.6578 11.6679 12.5519 12.1684 12.3447C12.6689 12.1375 13.1233 11.8331 13.5054 11.4491L15.9488 9.00572C16.3316 8.62297 16.6353 8.16856 16.8425 7.66843C17.0497 7.16831 17.1563 6.63226 17.1563 6.09092C17.1563 5.54957 17.0497 5.01353 16.8425 4.5134C16.6353 4.01327 16.3316 3.55886 15.9488 3.17611Z" fill="#151515"/>
</svg>
