<svg width="30" height="34" viewBox="0 0 30 34" fill="none" xmlns="http://www.w3.org/2000/svg">
<path d="M18.9615 24.958L18.8687 24.8846L25.3271 19.7597C27.6318 17.9312 27.6318 14.5917 25.3257 12.762L10.4407 0.951071C10.1543 0.723804 9.82715 0.621507 9.50747 0.62146C8.73181 0.621347 8 1.22321 8 2.1025V8.37765C8 8.97432 8.27426 9.53887 8.74588 9.91301L15.3081 15.119C16.0598 15.7158 16.0598 16.8045 15.3081 17.4014L8.74571 22.6086C8.27419 22.9828 8 23.5473 8 24.1438V29.0119C8 30.3106 8.58622 31.4789 9.5221 32.2996C10.3759 33.0482 11.5202 33.5072 12.7802 33.5072C12.7802 33.5072 16.5751 33.5072 20.3701 33.5072C24.165 33.5072 27.96 33.5072 27.96 33.5072C29.4798 33.5072 30.0359 31.536 28.7343 30.7628L18.9615 24.958Z" fill="#85E047"/>
<path d="M0.5 6.9153V3.19929C0.5 2.59356 0.997461 2.10252 1.61111 2.10252H6.88889C7.50254 2.10252 8 2.59356 8 3.19929V6.9153C8 7.72294 7.33672 8.37767 6.51852 8.37767H1.98148C1.16328 8.37767 0.5 7.72294 0.5 6.9153Z" fill="#85E047"/>
<path d="M0.5 29.0119V25.6062C0.5 24.7986 1.16328 24.1439 1.98148 24.1439H6.51852C7.33672 24.1439 8 24.7986 8 25.6062L8 29.0119L0.5 29.0119Z" fill="#85E047"/>
<path d="M7.53554 24.1438H1.8191C1.09058 24.1438 0.472291 23.505 0.918847 22.9368C1.1031 22.7024 1.40958 22.6086 1.71017 22.6086H7.42661C7.86511 22.6086 8.15621 23.2661 8.05443 23.6871C7.99488 23.9334 7.79206 24.1438 7.53554 24.1438Z" fill="#85E047"/>
<path d="M7.42656 9.913H1.71033C1.40974 9.913 1.10326 9.81923 0.918979 9.58481C0.472288 9.01658 1.09068 8.37764 1.81932 8.37764H7.53554C7.79206 8.37764 7.99488 8.5881 8.05442 8.83439C8.15621 9.25543 7.86508 9.913 7.42656 9.913Z" fill="#85E047"/>
<path d="M0.89129 1.10345C1.17654 0.799478 1.58552 0.621398 2.00747 0.62146L9.50747 0.62146C9.08567 0.621522 8.67644 0.799583 8.39129 1.10345C7.97428 1.54783 7.50254 2.10252 6.88889 2.10252H1.61111C0.997461 2.10252 0.474282 1.54783 0.89129 1.10345Z" fill="#85E047"/>
<path d="M2.02209 32.2996C1.08622 31.4789 0.5 30.3106 0.5 29.0119L8 29.0119C8 30.3106 8.58622 31.4789 9.5221 32.2996L2.02209 32.2996Z" fill="#85E047"/>
<path d="M2.00747 0.62146C2.20888 0.621489 2.41323 0.662107 2.60851 0.748996C2.83934 0.8517 3.0787 0.951071 3.3319 0.951071H9.43003C9.76599 0.951071 9.84343 0.621509 9.50747 0.62146L2.00747 0.62146Z" fill="#85E047"/>
<path d="M5.28017 33.5072C4.02024 33.5072 2.87594 33.0482 2.02209 32.2996L9.5221 32.2996C10.3759 33.0482 11.5202 33.5072 12.7802 33.5072L5.28017 33.5072Z" fill="#85E047"/>
<path d="M4.52506 20.0065L7.80815 17.4014L15.3081 17.4014L9.15229 22.286C8.88916 22.4948 8.56169 22.6086 8.22409 22.6086H5.45326C4.05459 22.6086 3.43495 20.8715 4.52506 20.0065Z" fill="#85E047"/>
<path d="M7.80811 15.119L4.52603 12.5152C3.43575 11.6503 4.05535 9.91301 5.4541 9.91301H8.22431C8.56185 9.91301 8.88927 10.0268 9.15237 10.2355L15.3081 15.119H7.80811Z" fill="#85E047"/>
<path d="M7.80815 17.4014C8.55981 16.8045 8.55976 15.7158 7.80811 15.119H15.3081C16.0598 15.7158 16.0598 16.8045 15.3081 17.4014L7.80815 17.4014Z" fill="#85E047"/>
<path d="M5.40024 2.90269L17.8257 12.762L25.3257 12.762L10.7456 1.19303C10.5483 1.03644 10.3026 0.951085 10.0495 0.951085H6.09638C5.04737 0.951085 4.58264 2.25395 5.40024 2.90269Z" fill="#85E047"/>
<path d="M11.3687 24.8846L11.4614 24.958L18.9615 24.958L18.8687 24.8846L11.3687 24.8846Z" fill="#85E047"/>
<path d="M17.827 19.7597L11.3687 24.8846L18.8687 24.8846L25.3271 19.7597L17.827 19.7597Z" fill="#85E047"/>
<path d="M11.4614 24.958L20.97 30.6058C21.143 30.7086 21.341 30.7628 21.5429 30.7628H24.7329C25.8591 30.7628 26.2707 29.2995 25.3058 28.7263L18.9615 24.958L11.4614 24.958Z" fill="#85E047"/>
<path d="M17.8257 12.762C20.1318 14.5917 20.1317 17.9312 17.827 19.7597L25.3271 19.7597C27.6318 17.9312 27.6318 14.5917 25.3257 12.762L17.8257 12.762Z" fill="#85E047"/>
<path d="M28.4257 30.7628H25.1398C24.0406 30.7628 21.5591 33.5072 20.46 33.5072H27.96C29.3724 33.5072 29.9525 31.8046 28.9826 30.9435C28.8325 30.8103 28.6276 30.7628 28.4257 30.7628Z" fill="#85E047"/>
<path d="M11.4615 24.958L11.3687 24.8846L17.8271 19.7597C20.1318 17.9312 20.1318 14.5917 17.8257 12.762L2.9407 0.951071C1.95932 0.172368 0.5 0.86082 0.5 2.1025V8.37765C0.5 8.97432 0.774259 9.53887 1.24588 9.91301L7.80814 15.119C8.55979 15.7158 8.55979 16.8045 7.80814 17.4014L1.24571 22.6086C0.77419 22.9828 0.5 23.5472 0.5 24.1438V29.0119C0.5 30.3106 1.08622 31.4789 2.02209 32.2996C2.87594 33.0482 4.02024 33.5072 5.28017 33.5072H20.46C21.9798 33.5072 22.5359 31.536 21.2343 30.7628L11.4615 24.958Z" fill="#151515"/>
<path fill-rule="evenodd" clip-rule="evenodd" d="M11.0314 25.5655L10.1715 24.8857L17.3567 19.184C19.2883 17.6515 19.2888 14.8717 17.3554 13.3377L2.47035 1.52679C1.97966 1.13744 1.25 1.48166 1.25 2.1025V8.37765C1.25 8.75057 1.42141 9.10341 1.71617 9.33725L8.27843 14.5432C9.40269 15.4359 9.40294 17.0842 8.27869 17.9769L1.71607 23.1843C1.42137 23.4182 1.25 23.771 1.25 24.1438V29.0119C1.25 30.0842 1.73267 31.0564 2.52065 31.7474C3.23977 32.3778 4.2075 32.768 5.28017 32.768H20.46C21.2199 32.768 21.498 31.7824 20.8472 31.3959L11.0314 25.5655ZM17.8257 12.762L2.9407 0.951071C1.95932 0.172368 0.5 0.86082 0.5 2.1025V8.37765C0.5 8.97432 0.774259 9.53887 1.24588 9.91301L7.80814 15.119C8.55979 15.7158 8.55979 16.8045 7.80814 17.4014L1.24571 22.6086C0.77419 22.9828 0.5 23.5472 0.5 24.1438V29.0119C0.5 30.3106 1.08622 31.4789 2.02209 32.2996C2.87594 33.0482 4.02024 33.5072 5.28017 33.5072H20.46C21.9798 33.5072 22.5359 31.536 21.2343 30.7628L11.4615 24.958L11.3687 24.8846L17.8271 19.7597C20.1318 17.9312 20.1318 14.5917 17.8257 12.762Z" fill="#85E047"/>
<path fill-rule="evenodd" clip-rule="evenodd" d="M11.0314 25.5655L10.1715 24.8857L17.3567 19.184C19.2883 17.6515 19.2888 14.8717 17.3554 13.3377L2.47035 1.52679C1.97966 1.13744 1.25 1.48166 1.25 2.1025V8.37765C1.25 8.75057 1.42141 9.10341 1.71617 9.33725L8.27843 14.5432C9.40269 15.4359 9.40294 17.0842 8.27869 17.9769L1.71607 23.1843C1.42137 23.4182 1.25 23.771 1.25 24.1438V29.0119C1.25 30.0842 1.73267 31.0564 2.52065 31.7474C3.23977 32.3778 4.2075 32.768 5.28017 32.768H20.46C21.2199 32.768 21.498 31.7824 20.8472 31.3959L11.0314 25.5655ZM17.8257 12.762L2.9407 0.951071C1.95932 0.172368 0.5 0.86082 0.5 2.1025V8.37765C0.5 8.97432 0.774259 9.53887 1.24588 9.91301L7.80814 15.119C8.55979 15.7158 8.55979 16.8045 7.80814 17.4014L1.24571 22.6086C0.77419 22.9828 0.5 23.5472 0.5 24.1438V29.0119C0.5 30.3106 1.08622 31.4789 2.02209 32.2996C2.87594 33.0482 4.02024 33.5072 5.28017 33.5072H20.46C21.9798 33.5072 22.5359 31.536 21.2343 30.7628L11.4615 24.958L11.3687 24.8846L17.8271 19.7597C20.1318 17.9312 20.1318 14.5917 17.8257 12.762Z" fill="#85E047"/>
<path fill-rule="evenodd" clip-rule="evenodd" d="M14.3582 22.0894C14.4962 22.2573 14.4691 22.5029 14.2976 22.638L6.84498 28.5098C6.67346 28.6449 6.4225 28.6184 6.28443 28.4505C6.14635 28.2826 6.17347 28.037 6.34498 27.9019L13.7976 22.0301C13.9691 21.895 14.2201 21.9215 14.3582 22.0894Z" fill="#85E047"/>
<path fill-rule="evenodd" clip-rule="evenodd" d="M14.3582 22.0894C14.4962 22.2573 14.4691 22.5029 14.2976 22.638L6.84498 28.5098C6.67346 28.6449 6.4225 28.6184 6.28443 28.4505C6.14635 28.2826 6.17347 28.037 6.34498 27.9019L13.7976 22.0301C13.9691 21.895 14.2201 21.9215 14.3582 22.0894Z" fill="#85E047"/>
</svg>
