<svg width="22" height="22" viewBox="0 0 22 22" fill="none" xmlns="http://www.w3.org/2000/svg">
<path d="M19.4932 14.6288C19.1277 10.5844 17.1111 8.55556 17.1111 8.55556L13.4444 3.66667H8.5555L4.88883 8.55556C4.88883 8.55556 4.02167 9.43128 3.32011 11.1681C2.10461 11.5714 1.22217 12.7044 1.22217 14.0556C1.22269 14.4756 1.31035 14.891 1.4796 15.2755C1.64884 15.6599 1.896 16.0051 2.20545 16.2892C1.96443 16.7286 1.83653 17.2211 1.83328 17.7222C1.83328 18.9188 2.5275 19.9442 3.52911 20.4453C4.31317 21.6199 5.36061 22 6.11106 22H15.8888C16.7316 22 17.9501 21.5239 18.7476 19.9772C19.9277 19.5549 20.7777 18.4372 20.7777 17.1111C20.7771 16.6249 20.6602 16.1459 20.4367 15.714C20.2133 15.2822 19.8897 14.9101 19.4932 14.6288ZM10.9999 3.66667C11.3361 3.66667 11.6465 3.57011 11.9166 3.41244C12.1873 3.57011 12.4978 3.66667 12.8333 3.66667C13.8459 3.66667 15.2777 2.23422 15.2777 1.22222C15.2777 1.22222 15.2777 0 14.0555 0C13.5739 0 13.4444 0.611111 12.8333 0.611111C12.2222 0.611111 12.2222 0 10.9999 0C9.77772 0 9.77772 0.611111 9.16661 0.611111C8.5555 0.611111 8.42656 0 7.94439 0C6.72217 0 6.72217 1.22222 6.72217 1.22222C6.72217 2.23422 8.15461 3.66667 9.16661 3.66667C9.50211 3.66667 9.81256 3.57011 10.0833 3.41244C10.354 3.57011 10.6644 3.66667 10.9999 3.66667Z" fill="#FDD888"/>
<path d="M14.6667 3.66678C14.6667 3.82885 14.6023 3.98429 14.4877 4.0989C14.3731 4.2135 14.2177 4.27789 14.0556 4.27789H7.94449C7.78241 4.27789 7.62697 4.2135 7.51236 4.0989C7.39776 3.98429 7.33337 3.82885 7.33337 3.66678C7.33337 3.5047 7.39776 3.34926 7.51236 3.23465C7.62697 3.12005 7.78241 3.05566 7.94449 3.05566H14.0556C14.2177 3.05566 14.3731 3.12005 14.4877 3.23465C14.6023 3.34926 14.6667 3.5047 14.6667 3.66678Z" fill="#BF6952"/>
<path d="M14.6062 14.9978C14.6062 12.2619 9.36226 12.4403 9.36226 10.7897C9.36226 9.99039 10.1573 9.59989 11.0801 9.59989C12.6311 9.59989 12.9073 10.5587 13.6095 10.5587C14.1063 10.5587 14.3459 10.2574 14.3459 9.9195C14.3459 9.13483 13.109 8.54083 11.9228 8.3355V7.57772C11.9228 7.10533 11.5256 6.72217 11.0343 6.72217C10.5423 6.72217 10.1445 7.10533 10.1445 7.57772V8.36178C8.85138 8.64472 7.73854 9.50761 7.73854 10.9138C7.73854 13.5409 12.9813 13.4346 12.9813 15.2802C12.9813 15.92 12.2614 16.5592 11.0801 16.5592C9.30726 16.5592 8.71693 15.4048 7.99704 15.4048C7.64626 15.4048 7.33276 15.6884 7.33276 16.1162C7.33276 16.7963 8.5171 17.614 10.1457 17.8419L10.1451 17.8481V18.7024C10.1451 19.1742 10.5435 19.5579 11.0349 19.5579C11.5262 19.5579 11.924 19.1742 11.924 18.7024V17.8481C11.924 17.8377 11.9192 17.8297 11.9185 17.8206C13.384 17.5578 14.6062 16.6399 14.6062 14.9978Z" fill="#67757F"/>
</svg>
