<svg width="48" height="48" viewBox="0 0 48 48" fill="none" xmlns="http://www.w3.org/2000/svg">
<path d="M24 4C35.0457 4 44 12.9543 44 24C44 35.0457 35.0457 44 24 44C12.9543 44 4 35.0457 4 24C4 12.9543 12.9543 4 24 4Z" fill="#262626"/>
<path fill-rule="evenodd" clip-rule="evenodd" d="M18.4289 30.7859H29.6432C30.0717 30.7859 30.4289 30.7145 30.8574 30.5002C31.3574 30.2859 31.6432 29.9287 31.786 29.643C31.786 29.643 31.786 29.5716 31.8574 29.5716C32.0717 29.2145 32.2146 28.7859 32.2146 28.2859C32.2146 27.8573 32.1432 27.4287 31.8574 27.0002L24.786 14.8573C24.6432 14.5716 24.3574 14.4287 24.0003 14.4287C23.7146 14.4287 23.4289 14.5716 23.2146 14.8573L16.286 27.0002C16.1432 27.2859 15.8574 27.643 15.8574 28.2145C15.786 28.7145 15.9289 29.143 16.1432 29.5716C16.3574 30.0002 16.7146 30.3573 17.2146 30.5002C17.6432 30.7859 18.1432 30.7859 18.4289 30.7859ZM23.1432 29.0716H18.4289C18.1432 29.0716 18.0003 29.0716 17.9289 29.0002C17.786 28.9287 17.7146 28.8573 17.6432 28.7145C17.5717 28.643 17.5717 28.5002 17.5717 28.3573C17.5717 28.2859 17.6432 28.2145 17.786 27.9287L23.1432 18.643V29.0716ZM24.8574 29.0716V18.5716L30.286 27.9287C30.3574 28.0716 30.3574 28.2145 30.3574 28.3573C30.3574 28.5002 30.3574 28.643 30.286 28.7145C30.2146 28.7859 30.2146 28.8573 30.1432 28.8573L30.0717 28.9287C29.9289 29.0002 29.786 29.0002 29.5717 29.0002H24.8574V29.0716Z" fill="white"/>
</svg>
