<svg width="48" height="48" viewBox="0 0 48 48" fill="none" xmlns="http://www.w3.org/2000/svg">
<path d="M24 44C35.0457 44 44 35.0457 44 24C44 12.9543 35.0457 4 24 4C12.9543 4 4 12.9543 4 24C4 35.0457 12.9543 44 24 44Z" fill="#3D8130"/>
<path d="M31.6172 30.5156L31.6094 30.5078L31.6172 30.5156Z" fill="#3D8130"/>
<path d="M15.8838 19.8596L14.9854 21.6096L14.0557 23.4456L13.3994 25.1643L12.9619 26.9924L12.6885 28.9924L12.5244 30.719L12.3369 31.8518L12.5244 32.7346L12.8447 33.4924L13.4385 34.5393L14.8135 35.3987L15.8291 35.7971C16.0791 35.8752 16.3447 35.9534 16.5713 36.0237L17.7744 36.2424L19.4932 36.3206H20.915C21.0791 36.3206 22.5166 36.2424 22.5244 36.2346L24.3525 36.2659L26.1182 36.0471L26.8838 35.7268L27.4072 35.1018L27.4307 34.2737C27.3994 34.2034 27.2979 33.9377 27.2666 33.8362C27.2432 33.7659 26.8916 33.3518 26.5713 32.9924L26.5635 32.9846C26.4229 32.7815 26.1963 32.4299 26.1963 32.3127C26.1963 32.1956 26.3369 31.8518 26.3682 31.7893L26.3838 31.7581L27.1182 31.5471L27.6025 31.8987L28.04 31.6565L28.5322 31.1643L29.3916 30.5315L30.1729 30.0862L30.79 29.969L31.6025 30.5237L31.5479 30.4612L31.8838 30.1643L32.1963 29.6487V29.1096L32.1338 28.9534L31.7354 29.2737L31.0244 29.4768H31.0088L29.915 29.4534L28.3291 29.6174L27.8291 29.6721L27.4463 29.6174L26.4229 29.4768L25.2666 29.2581L23.3994 28.9534H23.3916L21.6025 28.2112L20.0322 27.3049L19.0713 26.6565L18.9775 26.1956L19.1025 25.7659L19.4854 25.4846L20.376 25.6877L22.3213 26.2893C23.2744 26.4846 24.7275 26.7737 24.8213 26.7815C24.8682 26.7815 25.0557 26.8127 25.5244 26.8909C26.0244 26.969 26.7119 27.0862 26.8525 27.0862C27.0947 27.0862 28.9619 27.1877 29.0713 27.1956C29.1729 27.1956 30.6885 27.1643 30.8525 27.1643C30.9619 27.1643 31.5479 26.969 31.8994 26.844L32.4307 26.2112L32.9385 25.3284C32.9697 25.0706 32.9385 24.8127 32.8447 24.5706C32.7197 24.2424 32.4854 23.9612 32.1885 23.7737C32.0322 24.0706 31.8291 24.2581 31.5947 24.344C31.5088 24.3752 31.4072 24.3909 31.3135 24.3909C31.1729 24.3909 31.0322 24.3596 30.915 24.2971L30.9932 24.1565C31.165 24.2424 31.3604 24.2581 31.5479 24.1956C31.7588 24.1174 31.9385 23.9299 32.0791 23.6409C31.9072 23.7034 31.7197 23.7424 31.5322 23.7424C31.415 23.7424 31.2979 23.7346 31.1807 23.7034L31.1963 23.6252L31.2119 23.5471C31.2197 23.5471 31.8213 23.6956 32.2744 23.344C32.5947 23.1018 32.7744 22.6643 32.8057 22.0627L32.2822 22.6799L31.6494 22.969C31.3682 23.0393 30.4307 23.2737 30.3447 23.2737C30.3135 23.2737 30.1885 23.2581 29.8838 23.2034C29.501 23.1409 28.9307 23.0549 28.7822 23.0549C28.5166 23.0549 28.1416 22.7659 28.1025 22.7346L28.0557 22.7034L28.3525 21.8362L29.1729 20.9065L30.04 20.2893H31.1182L32.1338 20.3987L32.5713 20.8987L32.7822 21.2112V20.3674L31.9385 20.0627C31.8447 20.0471 31.0088 19.9299 30.8057 19.9299C30.6104 19.9299 29.8604 20.0471 29.7354 20.0627L28.6494 20.7659L28.5635 20.6331L29.6729 19.9143H29.6885C29.7275 19.9065 30.5713 19.7737 30.7979 19.7737C31.0166 19.7737 31.9229 19.9065 31.9619 19.9143L31.9775 19.9221L32.8916 20.2581L32.9775 20.3049L32.9854 20.2424L32.5557 19.8674L31.7822 19.4924L30.8447 19.4143L29.7666 19.6018L29.3369 19.7893L29.2744 19.6409L29.7275 19.4456L30.8369 19.2502L31.8213 19.3362L31.8604 19.3596L31.5635 18.8987L30.7275 18.1643L30.7354 18.1565L27.4854 18.2502C27.4854 18.2502 27.0635 18.3049 26.5791 18.3674L27.04 19.0315L27.2744 19.4456L27.1572 19.8596L27.001 19.8127L27.1025 19.4612L26.8994 19.1096L26.4072 18.3987L26.4385 18.3752C25.8291 18.4534 25.1807 18.5315 25.1416 18.5315C25.0713 18.5315 22.4619 18.7268 22.3525 18.7268C22.1338 18.7112 21.915 18.6877 21.7041 18.6409C21.665 18.6174 19.9229 17.9846 19.8604 17.9456C19.7979 17.9065 19.1885 17.3206 19.1885 17.3206L18.001 16.9534L16.9619 18.2346L15.8838 19.8596ZM28.5635 23.4456C28.7197 23.5159 28.8604 23.6018 29.0088 23.6877L29.8994 23.7893L30.4072 23.6799L30.4385 23.8362L29.9072 23.9456L29.29 23.8752C29.5557 24.0706 29.7979 24.2893 30.0166 24.5393C30.1729 24.719 30.3135 24.9143 30.4307 25.1174L30.29 25.1956C30.1494 24.9612 29.9854 24.7346 29.79 24.5393C29.5322 24.2737 29.2432 24.0315 28.9307 23.8362L28.4775 23.5784L28.5635 23.4456ZM19.6338 20.5237L20.3447 19.844L20.9619 19.3362L21.8447 19.1643L22.7744 19.1331H23.7666L24.5869 19.1643L26.251 19.1956L26.7744 19.5159L27.415 20.1018L27.7822 20.5549L27.9541 21.4768L27.7979 21.5081L27.6338 20.6252L27.2979 20.2034L26.6807 19.6409L26.2119 19.3518L24.9072 19.3284L25.4775 19.6409C25.7822 19.7971 26.3057 20.0784 26.3604 20.1956C26.3994 20.2581 26.8135 20.6643 27.1963 21.0237L27.2041 21.0315L27.79 21.7893L27.876 22.4143L27.7197 22.4377L27.6416 21.8596L27.0869 21.1409C26.8916 20.9612 26.2822 20.3831 26.2275 20.2737C26.1807 20.2112 25.7744 19.9768 25.415 19.7893L24.5791 19.3284L23.7744 19.3049H22.79L21.8682 19.3284L21.0479 19.4846L20.4619 19.9612L19.7979 20.6018L19.7275 21.0237L19.8682 21.1487L20.2197 20.9612L20.7979 20.2424L21.8447 19.844L23.2041 19.7034L24.3525 19.8127L25.8447 20.5862L26.4619 20.9534L27.0557 21.7424L27.3291 22.6018L27.7275 22.8596V23.2112L27.3604 23.5471L26.7041 23.8206L26.4229 24.0549L26.126 24.5393L25.9775 24.7815L25.9619 24.7893C25.7666 24.8909 25.4229 25.0706 25.3291 25.0706C25.2588 25.0862 24.8213 25.2815 24.4307 25.4768L24.3916 25.4846C24.3604 25.4924 23.6729 25.7034 23.501 25.7346L23.4775 25.5784C23.626 25.5549 24.2744 25.3596 24.3369 25.3362C24.7275 25.1487 25.2119 24.9221 25.2979 24.9221C25.4854 24.8518 25.665 24.7659 25.8447 24.6643L25.915 24.5471L26.2744 23.9612L26.3604 23.8909C26.1104 23.8674 25.7822 23.8284 25.6963 23.7815C25.6572 23.7659 25.4229 23.7346 24.1963 23.7346C23.8916 23.7346 23.1729 23.5706 23.0713 23.5393C22.9932 23.5159 22.2588 23.2971 22.251 23.2971L22.2354 23.2893L22.2197 23.2737C22.2119 23.2659 21.5322 22.6174 21.0322 22.3284L21.1104 22.1877C21.5947 22.469 22.2119 23.0471 22.3213 23.1487C22.4385 23.1799 23.0479 23.3674 23.126 23.3909C23.2119 23.4221 23.915 23.5784 24.1963 23.5784C25.6729 23.5784 25.7354 23.6174 25.7744 23.6487C25.8291 23.6799 26.1807 23.719 26.4775 23.7424L26.4697 23.7971L26.5869 23.6956L27.2432 23.4221L27.5322 23.1565V22.9612L27.3291 22.8284L27.3369 22.8518L26.6572 23.1018L25.7197 23.2112C25.6729 23.2112 25.4697 23.219 25.2432 23.219C24.9775 23.219 24.6885 23.2112 24.6025 23.1799C24.4775 23.1409 23.6885 22.969 23.2979 22.8831H23.29L23.2822 22.8752C22.79 22.6096 22.1807 22.2737 22.1338 22.1877C22.0947 22.1409 21.79 21.9846 21.5322 21.8596H21.5244L20.6572 21.3518L20.54 21.3752L20.5244 21.2737L20.251 21.1174L19.8291 21.344L19.5322 21.0862L19.6338 20.5237ZM19.9932 24.2659L20.0322 24.4221L19.501 24.5471L19.2354 24.6096L19.2197 24.5471L19.1963 24.4534L19.9932 24.2659ZM20.3291 25.0081L20.29 25.1643C20.1104 25.1252 19.9229 25.1331 19.7432 25.1643C19.4463 25.219 19.0088 25.3909 18.5869 25.8752L18.4697 25.7737C19.3369 24.7581 20.29 24.9924 20.3291 25.0081Z" fill="#3D8130"/>
<path d="M21.3994 21.0547C21.4463 21.0469 22.5557 20.9141 22.6963 20.9141C22.751 20.9141 22.9072 20.9297 23.1104 20.9453C23.3838 20.9687 23.8447 21.0078 23.915 21C24.0244 20.9688 25.1182 20.875 25.2432 20.8594L25.8916 20.8125L25.7588 20.7344L24.2979 19.9766L23.1963 19.8672L21.8682 20L20.8838 20.375L20.3838 21L20.7041 21.1875L21.3994 21.0547Z" fill="#3D8130"/>
<path d="M25.25 21.0234C24.7656 21.0703 24.0234 21.1406 23.9453 21.1563C23.875 21.1719 23.625 21.1562 23.0938 21.1094C22.9141 21.0937 22.7422 21.0781 22.6953 21.0781C22.5859 21.0781 21.7422 21.1797 21.4219 21.2109L20.9062 21.3047L21.6094 21.7188C21.8281 21.8203 22.2031 22.0078 22.2656 22.1016C22.3281 22.1641 22.8594 22.4688 23.3516 22.7344C23.4766 22.7578 24.5078 22.9844 24.6641 23.0391C24.7734 23.0781 25.375 23.0703 25.7266 23.0625L26.6484 22.9531L27.2031 22.7422L27.1719 22.7266L26.8906 21.8359L26.3359 21.0938L26.0078 20.8984L26.0156 20.9766L25.25 21.0234Z" fill="#3D8130"/>
<path d="M32.4687 20.9609L32.0781 20.5234L31.125 20.4141H30.1094L29.2891 21L28.5078 21.8828L28.2578 22.6094C28.3828 22.7031 28.6328 22.8594 28.7969 22.8594C28.9609 22.8594 29.4922 22.9453 29.9219 23.0156C30.125 23.0469 30.3281 23.0781 30.3594 23.0781C30.4297 23.0703 31.1641 22.8906 31.6172 22.7812L32.1953 22.5156L32.6562 21.9844L32.6172 21.7344L31.1953 21.1562L29.375 21.1016L29.3828 20.9453L31.2344 21L32.7656 21.625L32.8281 22.0234C32.8281 22 32.8281 21.9766 32.8281 21.9531V21.5156L32.4687 20.9609Z" fill="#3D8130"/>
<path d="M30.7656 30.125L30.2344 30.2266L29.4844 30.6563L28.6406 31.2813L28.4062 31.5156L28.9375 31.8906L28.9766 32.1875L28.6172 32.5469L28.5078 32.4375L28.8125 32.1328L28.7969 31.9844L28.2969 31.6328L28.1484 31.7813L27.8359 31.9531L27.75 32.375L28.1875 32.7578L28.8203 32.7344C28.9375 32.6484 29.1328 32.5234 29.2266 32.5156C29.3203 32.4609 29.4141 32.3984 29.5 32.3281C29.7109 32.1641 29.7969 32.1094 29.8594 32.1094C30.0469 32.0156 30.2266 31.9141 30.3984 31.7969L30.4219 31.7813L31.1875 31.8672L31.4531 32.1328L31.3984 32.1875C31.2344 32.3672 31.0469 32.6016 31.0391 32.6562C31.0391 32.6953 31.0312 32.7344 31.0156 32.7656L31.1953 32.6641L32.0391 32.0625L32.1328 32.1953L31.2734 32.8047L30.875 33.0234C30.8594 33.0469 30.8438 33.0703 30.8359 33.0781L30.8047 33.0547L30.1953 33.3906L29.7734 34L29.625 34.3594L29.9297 34.7891L30.2656 35.1719L30.6641 35.2188L31.0313 35.1406L31.0234 35.0625L31.4297 34.4219L32.1953 33.6797L32.3047 33.7969L31.5469 34.5312L31.1797 35.1016L31.2031 35.5313L31.5938 35.7969L32.1094 35.8516L32.3984 35.7656L32.3437 35.6797L32.3828 35.6328C32.3984 35.6094 32.8203 35.1328 32.9063 35.0547C32.9688 34.9922 33.3281 34.5781 33.5078 34.375L33.625 34.4766C33.6016 34.5 33.1016 35.0859 33.0156 35.1641C32.9531 35.2266 32.6484 35.5625 32.5391 35.6875L32.8125 36.0937H33.2734L33.6719 35.9141L34 35.4297L34.4375 34.9609L34.5547 35.0703L34.1172 35.5313L33.7813 36.0391L33.3047 36.25H32.7266L32.4844 35.8906L32.1172 36L31.5312 35.9453L31.0469 35.6094L31.0313 35.2969L30.6641 35.375L30.1797 35.3125L29.8125 34.8906L29.2656 34.5625L28.6953 33.9297L28.5547 32.9453L28.7109 32.9219L28.8281 33.7656L29.5078 33.2266L30.2422 32.5234L30.6641 31.9453L30.4609 31.9219C30.2344 32.0703 29.9688 32.2344 29.875 32.25C29.7813 32.3047 29.6875 32.3672 29.6016 32.4375C29.3828 32.6016 29.2969 32.6562 29.2422 32.6562C29.125 32.7109 29.0078 32.7812 28.9062 32.8594L28.8828 32.875L28.1406 32.9063L27.5859 32.4141L27.6641 32.0391L27.6094 32.0703L27.1094 31.7109L26.5234 31.8828C26.4609 32.0234 26.4141 32.1641 26.3828 32.3125C26.3906 32.375 26.5625 32.6641 26.7187 32.8906C26.9297 33.125 27.4141 33.6797 27.4453 33.7969C27.4688 33.8828 27.5703 34.1328 27.6094 34.2266L27.6172 34.2422L27.5938 35.3047L27.8984 35.7578C28.0547 35.8516 29.2031 36.5234 29.3359 36.6016C29.4297 36.6562 30.2578 36.8906 30.7656 37.0312L32.4766 37.1953L33.8516 37.0078L35.0313 36.4688L35.6719 35.8516L35.5234 35.3047L34.7344 33.8359L34.1641 32.9687L33.1719 31.8906L31.7109 31.0859L31.4922 30.6172L30.7656 30.125Z" fill="#3D8130"/>
<path d="M32.0078 26.9609L31.9844 26.9688C31.8281 27.0234 31.0312 27.3047 30.8594 27.3047C30.6953 27.3047 29.0938 27.3281 29.0781 27.3359C29.0547 27.3359 27.1016 27.2266 26.8594 27.2266C26.7031 27.2266 26.0703 27.125 25.5078 27.0312C25.1953 26.9766 24.875 26.9297 24.8281 26.9297C24.7188 26.9297 22.6953 26.5156 22.2891 26.4375H22.2813L20.3359 25.8359L19.5234 25.6563L19.2422 25.8672L19.1484 26.2031L19.2188 26.5625L20.125 27.1719L21.6797 28.0703L23.4453 28.8047L25.2969 29.1016L26.4531 29.3203L27.8359 29.5078L29.9141 29.2891H29.9219L31.0078 29.3125L31.6641 29.125L32.2188 28.6797L32.6719 27.9844L32.7734 27.6641L32.625 27.3047C31.9688 27.8984 31.8984 27.9219 31.8594 27.9297L31.1875 28.0937L29.3203 28.1797H29.3125L27.3594 28.0703L25.4219 27.7188L23.8594 27.75H23.8516L22.2266 27.3359L20.7891 26.8359L20.0234 26.3672L20.1094 26.2344L20.8672 26.6953L22.2813 27.1875L23.8828 27.5938L25.4453 27.5625H25.4531L27.3906 27.9141L29.3281 28.0234L31.1797 27.9453L31.8281 27.7812C31.8672 27.7656 32.0859 27.5938 32.5469 27.1719C32.6094 27.1172 32.6484 27.0781 32.6641 27.0625L33.2578 26.25L33.4609 25.8672C33.4297 25.7344 33.3984 25.6094 33.3828 25.4766C33.3047 25.3516 33.2188 25.2422 33.1172 25.1328C33.1172 25.2031 33.1172 25.2734 33.1016 25.3438V25.3594L32.5625 26.2891L32.0078 26.9609Z" fill="#983B1F"/>
<path d="M35.6484 35.25L34.8516 33.7656L34.2734 32.8828L33.2734 31.7656L31.8281 30.9766L31.6172 30.5234L31.5781 30.5469C31.5781 30.5469 31.7109 31.0313 31.8047 31.0781C31.8984 31.125 33.1484 31.7656 33.2109 31.7969C33.2734 31.8281 34.3594 33.125 34.3594 33.125L35.2344 34.6484L35.7578 35.8203C35.7578 35.8203 35.0859 36.5078 35.0469 36.5156C35.0078 36.5234 33.7109 37.1563 33.6719 37.1563C33.6328 37.1563 32.375 37.2969 32.3047 37.2813C32.2344 37.2578 30.6875 37.125 30.5703 37.1172C30.4453 37.1094 29.0156 36.5391 29.0156 36.5391L27.7812 35.7969L27.4297 35.25L26.9375 35.8047C26.9375 35.8047 26.2422 36.1563 26.1484 36.1563C26.0547 36.1563 24.3516 36.3828 24.2187 36.3828H20.7891C20.7891 36.3828 17.3984 36.3203 17.25 36.25C17.2031 36.2266 16.9297 36.1406 16.5703 36.0234L16.2812 35.9688L15.8281 35.7969C15.2734 35.625 14.7734 35.4766 14.7734 35.4766L13.375 34.5703C13.375 34.5703 12.7891 33.5547 12.7656 33.5C12.7422 33.4453 12.3828 32.5938 12.3828 32.5547C12.3828 32.5156 12.2578 31.8359 12.2578 31.8359L12.5078 30.2813L12.6172 28.6484L12.8828 26.8672C12.8828 26.8672 13.3281 25.0781 13.3359 25C13.3437 24.9141 14.0625 23.1484 14.0625 23.1484L14.8203 21.7813L15.8203 19.7188L16.9219 18.1641L17.9922 16.8906L18.0625 16.9141L17.9375 16.8125L16.8984 18.1016L15.7422 19.7813L14.8359 21.5469L13.9063 23.375L13.2422 25.1094L12.7969 26.9531L12.5234 28.9688L12.3594 30.6953L12.1641 31.8594L12.3594 32.7813L12.6953 33.5625L13.3125 34.6563L14.7266 35.5469L16.2187 36.1328L17.7422 36.4141L19.4844 36.5H20.9062C21.0703 36.5 22.4375 36.4219 22.5234 36.4141L24.3594 36.4453H24.3672L26.1562 36.2266H26.1641L26.9844 35.8828L27.4062 35.375L27.7578 35.8984L27.7734 35.9063C27.7891 35.9141 29.0937 36.6719 29.2266 36.7578C29.3672 36.8438 30.5625 37.1719 30.7031 37.2031L32.4531 37.3672L33.8594 37.1719H33.8672L35.0859 36.6172L35.1016 36.6094L35.8281 35.9063L35.6484 35.25Z" fill="black"/>
<path d="M16.9229 18.1641L15.8213 19.7187L14.8213 21.7813L14.0635 23.1484C14.0635 23.1484 13.3447 24.9141 13.3369 25C13.3291 25.0859 12.8838 26.8672 12.8838 26.8672L12.6182 28.6484L12.5088 30.2812L12.2588 31.8359C12.2588 31.8359 12.3838 32.5156 12.3838 32.5547C12.3838 32.5938 12.7432 33.4453 12.7666 33.5C12.79 33.5547 13.376 34.5703 13.376 34.5703L14.7744 35.4766C14.7744 35.4766 15.2744 35.625 15.8291 35.7969L14.8135 35.3984L13.4385 34.5391L12.8447 33.4922L12.5244 32.7344L12.3369 31.8516L12.5244 30.7188L12.6885 28.9922L12.9619 26.9922L13.3994 25.1641L14.0557 23.4453L14.9854 21.6094L15.8838 19.8594L17.0322 18.1953L18.0713 16.9141L18.001 16.8906L16.9229 18.1641Z" fill="black"/>
<path d="M30.7969 29.9609L30.1797 30.0781L29.3984 30.5234L28.5391 31.1563L28.0469 31.6484L27.6094 31.8906L27.125 31.5391L26.3906 31.75L26.375 31.7813C26.3438 31.8516 26.2031 32.1875 26.2031 32.3047C26.2031 32.4219 26.4375 32.7813 26.5703 32.9766L26.5781 32.9844C26.8984 33.3438 27.25 33.7578 27.2734 33.8281C27.2969 33.9297 27.4063 34.1953 27.4375 34.2656L27.4141 35.0938L26.8906 35.7188L26.125 36.0391L24.3594 36.2578L22.5313 36.2266C22.5156 36.2266 21.0781 36.3125 20.9219 36.3125H19.5L17.7812 36.2344L16.5781 36.0156C16.9297 36.125 17.2109 36.2188 17.2578 36.2422C17.3984 36.3125 20.7969 36.375 20.7969 36.375H24.2266C24.3594 36.375 26.0703 36.1484 26.1563 36.1484C26.25 36.1484 26.9453 35.7969 26.9453 35.7969L27.4375 35.2422L27.7891 35.7891L29.0234 36.5312C29.0234 36.5312 30.4531 37.0937 30.5781 37.1094C30.7031 37.1172 32.2422 37.25 32.3125 37.2734C32.3828 37.2969 33.6406 37.1484 33.6797 37.1484C33.7188 37.1484 35.0156 36.5234 35.0547 36.5078C35.0938 36.5 35.7656 35.8125 35.7656 35.8125L35.2422 34.6406L34.3672 33.1172C34.3672 33.1172 33.2813 31.8203 33.2188 31.7891C33.1563 31.7578 31.9063 31.1172 31.8125 31.0703C31.7188 31.0234 31.5859 30.5391 31.5859 30.5391L31.625 30.5156V30.5078L30.7969 29.9609ZM31.7031 31.0859L33.1641 31.8906L34.1406 32.9687L34.7109 33.8359L35.5 35.3047L35.6484 35.8516L35.0078 36.4688L33.8281 37.0078L32.4531 37.1953L30.7422 37.0312C30.2344 36.8906 29.4063 36.6562 29.3125 36.6016C29.1797 36.5234 28.0313 35.8516 27.875 35.7578L27.5703 35.3047L27.5938 34.2422V34.2344C27.5547 34.1406 27.4531 33.8906 27.4297 33.8047C27.3984 33.6875 26.9141 33.1328 26.7031 32.8984C26.5469 32.6641 26.3672 32.375 26.3672 32.3203C26.3984 32.1719 26.4453 32.0313 26.5078 31.8906L27.0938 31.7187L27.5938 32.0781L27.6484 32.0469L27.5703 32.4219L28.125 32.9141L28.8672 32.8828L28.8906 32.8672C28.9922 32.7891 29.1094 32.7188 29.2266 32.6641C29.2891 32.6641 29.3672 32.6094 29.5859 32.4453C29.6719 32.375 29.7656 32.3125 29.8594 32.2578C29.9531 32.25 30.2266 32.0781 30.4453 31.9297L30.6484 31.9531L30.2266 32.5313L29.4922 33.2344L28.8125 33.7734L28.6953 32.9297L28.5391 32.9531L28.6797 33.9375L29.25 34.5703L29.7969 34.8984L30.1641 35.3203L30.6484 35.3828L31.0156 35.3047L31.0313 35.6172L31.5156 35.9531L32.1016 36.0078L32.4688 35.8984L32.7109 36.2578H33.2891L33.7656 36.0469L34.1016 35.5391L34.5391 35.0781L34.4219 34.9688L33.9844 35.4375L33.6563 35.9219L33.2578 36.1016H32.7969L32.5234 35.6953C32.6328 35.5703 32.9375 35.2344 33 35.1719C33.0859 35.0859 33.5859 34.5078 33.6094 34.4844L33.4922 34.3828C33.3125 34.5938 32.9531 35 32.8906 35.0625C32.8047 35.1484 32.3828 35.625 32.3672 35.6406L32.3281 35.6875L32.3828 35.7734L32.0938 35.8594L31.5781 35.8047L31.1875 35.5391L31.1641 35.1094L31.5313 34.5391L32.2891 33.8047L32.1797 33.6875L31.4141 34.4297L31.0078 35.0703L31.0156 35.1484L30.6484 35.2266L30.25 35.1797L29.9141 34.7969L29.6094 34.3672L29.7578 34.0078L30.1797 33.3984L30.7891 33.0625L30.8203 33.0859C30.8281 33.0703 30.8438 33.0547 30.8594 33.0313L31.2578 32.8125L32.1172 32.2031L32.0234 32.0703L31.1797 32.6719L31 32.7734C31.0156 32.7422 31.0234 32.7031 31.0234 32.6641C31.0313 32.6016 31.2188 32.375 31.3828 32.1953L31.4375 32.1406L31.1719 31.875L30.4063 31.7891L30.3828 31.8047C30.2109 31.9219 30.0312 32.0313 29.8438 32.1172C29.7812 32.1172 29.6953 32.1797 29.4844 32.3359C29.3984 32.4063 29.3047 32.4688 29.2109 32.5234C29.1172 32.5313 28.9297 32.6563 28.8047 32.7422L28.1719 32.7656L27.7344 32.3828L27.8203 31.9609L28.1328 31.7891L28.2812 31.6406L28.7813 31.9922L28.7969 32.1406L28.4922 32.4453L28.6016 32.5547L28.9609 32.1953L28.9219 31.8984L28.3906 31.5234L28.625 31.2891L29.4688 30.6641L30.2188 30.2344L30.75 30.1328L31.4688 30.625L31.7031 31.0859ZM29.5625 34.5781L29.3516 34.4531L28.8828 33.9375L29.6016 33.375L30.3438 32.6562L30.8281 31.9844L31.1016 32.0156L31.2188 32.1328C31.0703 32.2969 30.8672 32.5391 30.8672 32.6484C30.8438 32.7422 30.7969 32.8281 30.7422 32.8984L30.0625 33.2734L29.6094 33.9219L29.4219 34.3906L29.5625 34.5781Z" fill="black"/>
<path d="M31.4766 18.6562L31.875 19.1797C31.875 19.1797 32.0703 19.4844 32.1406 19.5078C32.2109 19.5312 32.8594 19.9062 32.8594 19.9062L33.125 20.2031L33.0703 20.375L32.8672 20.3125L32.8984 21.3203H32.9609V20.4141L33.1406 20.5156L33.1875 20.1328L32.6797 19.6875L32.1328 19.4219L32.1562 19.4062L31.7344 18.7422L30.8828 17.9922L30.7891 18.1016H30.875L31.4766 18.6562Z" fill="black"/>
<path d="M32.8047 22.7734C32.8047 22.7734 32.5156 23.3516 32.4844 23.3672C32.4531 23.3906 32.1953 23.5 32.1953 23.5L32.2188 23.6406C32.3359 23.7266 32.4531 23.8203 32.5547 23.9219C32.5703 23.9453 32.7422 24.2891 32.8828 24.5469H33.0234C32.8906 24.1562 32.625 23.8203 32.2734 23.6094C32.2891 23.5781 32.3047 23.5391 32.3203 23.5078C32.3438 23.4922 32.375 23.4766 32.3984 23.4531C32.7813 23.1641 32.9766 22.6641 33 21.9609V21.4688L32.9063 21.3281L32.9297 22.0859L32.8047 22.7734Z" fill="black"/>
<path d="M31.6172 18.8594L31.9141 19.3203L31.875 19.2969L30.8906 19.2109L29.7812 19.4062L29.3281 19.6016L29.3906 19.75L29.8203 19.5625L30.8984 19.375L31.8359 19.4531L32.6094 19.8281L33.0391 20.2031L33.0312 20.2656L32.9453 20.2188L32.0312 19.8828L32.0156 19.875C31.9766 19.8672 31.0781 19.7344 30.8516 19.7344C30.625 19.7344 29.7812 19.8672 29.7422 19.875H29.7266L28.6172 20.5937L28.7031 20.7266L29.7891 20.0234C29.9141 20.0078 30.6641 19.8906 30.8594 19.8906C31.0625 19.8906 31.8984 20.0156 31.9922 20.0234L32.8359 20.3281V21.1875L32.625 20.875L32.1875 20.375L31.1719 20.2656H30.0937L29.2266 20.8828L28.4062 21.8125L28.1094 22.6797L28.1563 22.7109C28.1953 22.7422 28.5703 23.0312 28.8359 23.0312C28.9844 23.0312 29.5625 23.125 29.9375 23.1797C30.2422 23.2266 30.3672 23.25 30.3984 23.25C30.4844 23.25 31.4219 23.0156 31.7031 22.9453L32.3359 22.6562L32.8594 22.0391C32.8281 22.6406 32.6484 23.0781 32.3281 23.3203C31.8672 23.6719 31.2656 23.5234 31.2656 23.5234L31.25 23.6016L31.2344 23.6797C31.3516 23.7031 31.4688 23.7187 31.5859 23.7187C31.7734 23.7187 31.9609 23.6875 32.1328 23.6172C31.9922 23.9063 31.8125 24.0938 31.6016 24.1719C31.4219 24.2344 31.2188 24.2188 31.0469 24.1328L30.9688 24.2734C31.0938 24.3359 31.2344 24.3672 31.3672 24.3672C31.4609 24.3672 31.5547 24.3516 31.6484 24.3203C31.8828 24.2344 32.0781 24.0469 32.2422 23.75C32.5391 23.9375 32.7734 24.2188 32.8984 24.5469H32.9219C32.7891 24.2891 32.6094 23.9453 32.5937 23.9219C32.4844 23.8203 32.375 23.7266 32.2578 23.6406L32.2344 23.5C32.2344 23.5 32.4922 23.3906 32.5234 23.3672C32.5547 23.3437 32.8438 22.7734 32.8438 22.7734L32.9687 22.0938L32.9453 21.3359L32.9141 20.3281L33.1172 20.3906L33.1719 20.2188L32.9062 19.9219C32.9062 19.9219 32.2578 19.5391 32.1875 19.5234C32.1172 19.5 31.9219 19.1953 31.9219 19.1953L31.5234 18.6719L30.9141 18.125H30.8281L30.8203 18.1328L31.6172 18.8594ZM32.8359 22.0234L32.7734 21.625L31.2422 21L29.3906 20.9453L29.3828 21.1016L31.2031 21.1563L32.625 21.7344L32.6641 21.9844L32.2031 22.5156L31.625 22.7812C31.1719 22.8906 30.4375 23.0703 30.3672 23.0781C30.3359 23.0781 30.1328 23.0469 29.9297 23.0156C29.5 22.9453 28.9687 22.8594 28.8047 22.8594C28.6484 22.8594 28.3984 22.7031 28.2656 22.6094L28.5156 21.8828L29.2969 21L30.1172 20.4141H31.1328L32.0859 20.5234L32.4766 20.9609L32.8438 21.5156V21.9531C32.8359 21.9766 32.8359 22 32.8359 22.0234Z" fill="black"/>
<path d="M27.8428 29.656L28.3428 29.6013H27.46L27.8428 29.656Z" fill="black"/>
<path d="M32.2891 29.6328C32.2656 29.6719 31.8125 30.4062 31.8125 30.4062L31.6094 30.5156L31.6563 30.5703L32.0156 30.2578L32.3594 29.6797V29.6016H32.2891C32.2969 29.6172 32.2969 29.625 32.2891 29.6328Z" fill="black"/>
<path d="M32.2881 29.6326C32.2881 29.6248 32.2959 29.6091 32.2959 29.6013H32.21V29.6326L31.8975 30.1482L31.5615 30.4451L31.6162 30.5076L31.624 30.5154L31.8272 30.406C31.8193 30.406 32.2725 29.6794 32.2881 29.6326Z" fill="black"/>
<path d="M33.04 24.8437L33.1104 24.9453C33.0947 24.8125 33.0713 24.6797 33.0244 24.5469H32.8838C32.9697 24.7109 33.04 24.8437 33.04 24.8437Z" fill="black"/>
<path d="M33.5469 25.7187C33.5391 25.7578 33.4453 26.0703 33.4219 26.1172C33.3984 26.1719 32.6641 27.1797 32.6641 27.1797L32.8359 27.5312C32.8359 27.5312 32.8672 27.7812 32.8438 27.8203C32.8203 27.8594 32.1719 28.8672 32.1719 28.8672L32.2734 29.1484C32.2734 29.1484 32.2969 29.5 32.2891 29.6094H32.3594V29.0703L32.2734 28.8359L32.3437 28.7812L32.8203 28.0469L32.9453 27.6484L32.7578 27.1875C32.7734 27.1719 32.7812 27.1641 32.7812 27.1641L33.3906 26.3281L33.6328 25.8828L33.625 25.8516C33.5938 25.7266 33.5625 25.5938 33.5469 25.4609C33.5469 25.4297 33.5469 25.3438 33.1406 24.9141L33.1094 24.9453L33.3516 25.2891C33.3516 25.2891 33.5547 25.6797 33.5469 25.7187Z" fill="black"/>
<path d="M32.8818 24.5469H32.8584C32.9521 24.7891 32.9834 25.0469 32.9521 25.3047L32.4365 26.1875L31.9053 26.8203C31.5459 26.9453 30.96 27.1406 30.8584 27.1406C30.6943 27.1406 29.1787 27.1641 29.0771 27.1719C28.96 27.1641 27.1006 27.0625 26.8584 27.0625C26.7178 27.0625 26.0303 26.9531 25.5303 26.8672C25.0693 26.7891 24.874 26.7578 24.8271 26.7578C24.7256 26.75 23.2803 26.4609 22.3271 26.2656L20.3818 25.6641L19.4912 25.4609L19.1084 25.7422L18.9834 26.1719L19.0771 26.6328L20.0381 27.2812L21.6084 28.1875L23.3975 28.9297H23.4053L25.2725 29.2344L26.4287 29.4531L27.4521 29.5938H28.3428L29.9287 29.4297L31.0225 29.4531H31.0381L31.749 29.25L32.1475 28.9297L32.21 29.0859V29.5938H32.2959C32.3037 29.4844 32.2803 29.1328 32.2803 29.1328L32.1787 28.8516C32.1787 28.8516 32.8271 27.8438 32.8506 27.8047C32.874 27.7656 32.8428 27.5156 32.8428 27.5156L32.6709 27.1641C32.6709 27.1641 33.4131 26.1562 33.4287 26.1016C33.4521 26.0469 33.5381 25.7422 33.5537 25.7031C33.5615 25.6641 33.3584 25.2734 33.3584 25.2734L33.1162 24.9297L33.0459 24.8281C33.0381 24.8438 32.9678 24.7109 32.8818 24.5469ZM33.1084 25.3438C33.1162 25.2734 33.124 25.2031 33.124 25.1328C33.2256 25.2344 33.3115 25.3516 33.3896 25.4766C33.4053 25.6094 33.4287 25.7422 33.4678 25.8672L33.2646 26.25L32.6709 27.0625C32.6553 27.0781 32.6084 27.1172 32.5537 27.1719C32.0928 27.5938 31.8818 27.7578 31.835 27.7812L31.1865 27.9453L29.335 28.0234L27.3975 27.9141L25.46 27.5625H25.4521L23.8896 27.5938L22.2881 27.1875L20.874 26.6953L20.1162 26.2344L20.0303 26.3672L20.7959 26.8359L22.2334 27.3359L23.8584 27.75H23.8662L25.4287 27.7188L27.3662 28.0703L29.3193 28.1797H29.3271L31.1943 28.0937L31.8662 27.9297C31.8975 27.9219 31.9756 27.8984 32.6318 27.3047L32.7803 27.6641L32.6787 27.9844L32.2256 28.6797L31.6709 29.125L31.0146 29.3125L29.9287 29.2891H29.9209L27.8428 29.5078L26.46 29.3203L25.3037 29.1016L23.4521 28.8047L21.6865 28.0703L20.1318 27.1719L19.2256 26.5625L19.1553 26.2031L19.249 25.8672L19.5303 25.6563L20.3428 25.8359L22.2881 26.4375H22.2959C22.7021 26.5234 24.7178 26.9297 24.835 26.9297C24.874 26.9297 25.2021 26.9844 25.5146 27.0312C26.0771 27.125 26.71 27.2266 26.8662 27.2266C27.1084 27.2266 29.0615 27.3359 29.085 27.3359C29.1006 27.3359 30.7021 27.3047 30.8662 27.3047C31.0381 27.3047 31.835 27.0234 31.9912 26.9688L32.0146 26.9609L32.5771 26.2891L33.1162 25.3594L33.1084 25.3438Z" fill="black"/>
<path d="M19.7432 25.164C19.9229 25.1249 20.1104 25.1249 20.29 25.164L20.3291 25.0077C20.29 24.9999 19.3369 24.7577 18.4697 25.7734L18.5869 25.8749C19.0088 25.3827 19.4463 25.2187 19.7432 25.164Z" fill="black"/>
<path d="M19.4922 24.5469L20.0234 24.4219L19.9922 24.2656L19.1953 24.4531L19.2188 24.5469H19.4922Z" fill="black"/>
<path d="M19.2334 24.6094L19.4912 24.5469H19.2178L19.2334 24.6094Z" fill="black"/>
<path d="M28.9453 23.8438C29.2578 24.0469 29.5469 24.2812 29.8047 24.5469H30.0234C29.8047 24.2969 29.5625 24.0781 29.2969 23.8828L29.9141 23.9531L30.4453 23.8438L30.4141 23.6875L29.9062 23.7969L29.0156 23.6953C28.875 23.6016 28.7266 23.5234 28.5703 23.4531L28.5 23.5938L28.9453 23.8438Z" fill="black"/>
<path d="M30.2959 25.2031L30.4365 25.125C30.3193 24.9219 30.1787 24.7266 30.0225 24.5469H29.8037C29.9912 24.75 30.1553 24.9687 30.2959 25.2031Z" fill="black"/>
<path d="M20.25 21.1172L20.5234 21.2734L20.5391 21.375L20.6562 21.3516L21.5234 21.8594H21.5312C21.7891 21.9844 22.0937 22.1406 22.1328 22.1875C22.1875 22.2656 22.7891 22.6016 23.2812 22.875L23.2891 22.8828H23.2969C23.6953 22.9687 24.4766 23.1406 24.6016 23.1797C24.6953 23.2109 24.9844 23.2188 25.2422 23.2188C25.4687 23.2188 25.6797 23.2109 25.7187 23.2109L26.6562 23.1016L27.3359 22.8516L27.3281 22.8281L27.5312 22.9609V23.1562L27.2422 23.4219L26.5859 23.6953L26.4687 23.7969L26.4766 23.7422C26.1797 23.7187 25.8281 23.6719 25.7734 23.6484C25.7344 23.625 25.6719 23.5781 24.1953 23.5781C23.9141 23.5781 23.2109 23.4219 23.125 23.3906C23.0469 23.3672 22.4375 23.1797 22.3203 23.1484C22.2187 23.0469 21.6016 22.4766 21.1094 22.1875L21.0312 22.3281C21.5391 22.625 22.2187 23.2656 22.2187 23.2734L22.2344 23.2891L22.25 23.2969C22.2578 23.2969 22.9922 23.5156 23.0703 23.5391C23.1641 23.5703 23.8828 23.7344 24.1953 23.7344C25.4219 23.7344 25.6484 23.7656 25.6953 23.7812C25.7812 23.8281 26.1094 23.8672 26.3594 23.8906L26.2734 23.9609L25.9141 24.5469H26.1016L26.3984 24.0625L26.6797 23.8281L27.3359 23.5547L27.7031 23.2188V22.8672L27.3047 22.6094L27.0312 21.75L26.4375 20.9609L25.8203 20.5937L24.3281 19.8203L23.1797 19.7109L21.8203 19.8516L20.7734 20.25L20.1953 20.9687L19.8437 21.1563L19.7031 21.0312L19.7734 20.6094L20.4375 19.9687L21.0234 19.4922L21.8437 19.3359L22.7656 19.3125H23.75L24.5547 19.3359L25.3906 19.7969C25.75 19.9844 26.1641 20.2187 26.2031 20.2812C26.2578 20.3906 26.8672 20.9687 27.0625 21.1484L27.6172 21.8672L27.6953 22.4453L27.8516 22.4219L27.7656 21.7969L27.1797 21.0391L27.1719 21.0312C26.7891 20.6797 26.375 20.2734 26.3359 20.2031C26.2812 20.0859 25.7578 19.8047 25.4531 19.6484L24.8828 19.3359L26.1875 19.3594L26.6562 19.6484L27.2734 20.2109L27.6094 20.6328L27.7734 21.5156L27.9297 21.4844L27.7578 20.5625L27.3906 20.1094L26.75 19.5234L26.2266 19.2031L24.5625 19.1719L23.7422 19.1406H22.75L21.8203 19.1719L20.9375 19.3437L20.3203 19.8516L19.6094 20.5313L19.5156 21.0938L19.8125 21.3516L20.25 21.1172ZM26.3437 21.0859L26.8984 21.8281L27.1797 22.7188L27.2109 22.7344L26.6562 22.9453L25.7344 23.0547C25.3828 23.0625 24.7812 23.0703 24.6719 23.0313C24.5156 22.9766 23.4844 22.7578 23.3594 22.7266C22.8672 22.4609 22.3281 22.1563 22.2734 22.0938C22.2109 22.0078 21.8359 21.8203 21.6172 21.7109L20.9141 21.2969L21.4297 21.2031C21.75 21.1641 22.5937 21.0703 22.7031 21.0703C22.75 21.0703 22.9219 21.0859 23.1016 21.1016C23.6328 21.1484 23.8828 21.1641 23.9531 21.1484C24.0312 21.1328 24.7734 21.0547 25.2578 21.0156L26.0234 20.9609L26.0156 20.8828L26.3437 21.0859ZM20.875 20.3828L21.8594 20.0078L23.1875 19.875L24.2891 19.9844L25.75 20.7422L25.8828 20.8203L25.2344 20.8672C25.1094 20.875 24.0156 20.9766 23.9062 21.0078C23.8359 21.0234 23.3828 20.9766 23.1016 20.9531C22.8984 20.9375 22.7422 20.9219 22.6875 20.9219C22.5469 20.9219 21.4375 21.0547 21.3906 21.0625L20.6875 21.1953L20.3672 21.0078L20.875 20.3828Z" fill="black"/>
<path d="M25.8428 24.6641C25.6631 24.7656 25.4834 24.8437 25.2959 24.9219C25.21 24.9219 24.7256 25.1484 24.335 25.3359C24.2646 25.3594 23.624 25.5547 23.4756 25.5781L23.499 25.7344C23.6631 25.7031 24.3584 25.4922 24.3896 25.4844L24.3975 25.4766C24.7881 25.2891 25.2334 25.0859 25.2959 25.0703C25.3896 25.0625 25.7334 24.8906 25.9287 24.7891L25.9443 24.7813L26.0928 24.5391H25.9053L25.8428 24.6641Z" fill="black"/>
<path d="M26.5938 18.2656L26.4922 18.3359C26.5391 18.3281 26.5859 18.3281 26.6328 18.3203L26.5938 18.2656Z" fill="black"/>
<path d="M26.9609 19.0703L27.1641 19.4219L27.0625 19.7734L27.2188 19.8203L27.3359 19.4063L27.1016 18.9922L26.6406 18.3281C26.5937 18.3359 26.5469 18.3359 26.5 18.3438L26.4688 18.3672L26.9609 19.0703Z" fill="black"/>
<path d="M31.7422 18.8828L32.4375 18.8125C32.4375 18.8125 34.1719 19.3281 34.2422 19.3984C34.3125 19.4687 35.1875 19.8516 35.1875 19.8516L35.7031 19.8984L35.7734 19.4297L35.3906 18.8828L34.2891 18.0703L33.0312 17.4609L32.2422 17.1875L31.9609 13.2031L31.2969 12.2109L30.3047 11.3984L29.0234 10.7656L27.6953 10.7422L25.1953 11.0547L22.8984 11.5078L22.7656 11.1172C22.5859 11.0703 22.4062 11.0391 22.2266 11.0156C22.0938 11.0156 20.875 11.3906 20.875 11.3906L20.1328 11.7812L19.9766 12.2344L18.9141 12.8203L18.0547 13.8984L17.5625 14.9375C17.5625 14.9375 17.3125 15.9766 17.3125 16.0391C17.3125 16.1016 17.4453 16.6719 17.5391 16.7109C17.6328 16.75 18.3281 16.9375 18.3281 16.9375L19.2422 17.3906L20.5625 18.1562L22.2031 18.6953C22.2031 18.6953 23.7578 18.5859 23.9141 18.5859C24.0703 18.5859 26.4141 18.3359 26.5469 18.3359C26.6797 18.3359 29.25 18.1328 29.3203 18.1328C29.3906 18.1328 30.9219 18.1094 30.9219 18.1094L31.5312 18.6484L31.7422 18.8828Z" fill="#C82727"/>
<path d="M31.1328 21.0938L31.3359 21.5234L31.4609 22.0156L31.3984 22.3281L31.1328 23.0078L30.2891 23.1484L28.9297 22.9063L28.7656 22.4297L28.8281 22L28.9688 21.3203L29.3203 20.9297L29.5469 21.0547L31.0469 21.0938" fill="black"/>
<path d="M24.9453 21.0313L25.1953 21.5078L25.2188 22.0859L25.0937 22.6016L24.8281 23.0156L24.3984 23.0391L22.75 22.5469L22.0938 21.9688L22.1797 21.6016L22.4062 21.25L22.7109 21.0078L23.8672 21.0391C23.8516 21.0313 24.8984 21.1172 24.9453 21.0313Z" fill="black"/>
<path d="M35.5625 18.9453L34.9219 18.3828L34 17.7656L32.4844 17.2109L32.2734 17.125L32.2109 15.8203C32.1328 15.1797 32.0234 14.2109 32.0234 14.1328C32.0234 14.0234 31.9687 13.2266 31.9687 13.1953V13.1797L31.5156 12.3594L30.7578 11.5781L29.5938 10.9141L28.625 10.6406H27.2969L25.9922 10.8047C25.4688 10.8906 24.6484 11.0234 24.5547 11.0234C24.4141 11.0234 23.3203 11.2734 23.1953 11.2969L22.8125 11.3984L22.875 11.3672L22.75 11.1172L22.3438 10.9609L21.75 11.0156L20.7969 11.25L20.0781 11.7109L19.9297 12.0938L20.0312 12.1328L19.6328 12.2344H19.6172L18.7734 12.7656L18.1875 13.4297L17.6563 14.3203L17.2344 15.7734V16.2969L17.5078 16.7813L19.2188 17.3906L19.7891 17.9063L21.0625 18.4844L22.1875 18.7656L24.2891 18.625L27.3281 18.2969L29.4922 18.1328L31.2891 18.1563L33.1875 18.4297L34.6875 19.1406L34.7578 19L33.2422 18.2813L31.3125 18.0078L29.4922 17.9766L27.3203 18.1406L24.2813 18.4688L22.2109 18.6016L21.1328 18.3359L19.8906 17.7656L19.3125 17.2422L17.625 16.6406L17.4063 16.25V15.7891L17.8125 14.3828L18.3281 13.5234L18.8906 12.8828L19.6953 12.375L23.2422 11.4453C23.7031 11.3438 24.4766 11.1719 24.5703 11.1719C24.7109 11.1719 25.8984 10.9766 26.0312 10.9531L27.3125 10.7891H28.6094L29.5234 11.0547L30.6562 11.7031L31.3828 12.4531L31.8047 13.2266C31.8203 13.5156 31.8594 14.0547 31.8594 14.1328C31.8594 14.2422 32.0312 15.6797 32.0547 15.8359L32.1172 17.0625L31.1953 16.7109L29.375 16.5156L28 16.375L26.6484 16.4844L25.0859 16.6484L23.2656 17.0625L21.8984 17.3906L20.9844 17.4453L19.8125 17.2109L20.4063 17.6406L20.8906 17.9219L22 18.1953L23.0859 18.2266H23.0937L24.0625 18.1172L25.4297 17.8984L26.7656 17.6797L28.2656 17.5703L29.3047 17.5156L30.5547 17.5938L32.25 17.8125L34.4375 18.2266L34.8203 18.4766L35.4297 19.0078L35.6016 19.4063L35.5625 19.7031L35.2344 19.7266L34.5938 19.4297L33.4141 18.9609L32.4844 18.6797L31.6719 18.7656L31.6875 18.9219L32.4687 18.8438L33.3516 19.1094L34.5234 19.5703L35.2031 19.8828L35.6953 19.8516L35.7656 19.3828L35.5625 18.9453ZM20.0938 12.1094L20.2109 11.8125L20.8594 11.3984L21.7734 11.1797L22.3281 11.125L22.6406 11.2422L22.7266 11.4141L20.0938 12.1094ZM32.2734 17.6875L30.5625 17.4688L29.2969 17.3828L28.25 17.4375L26.7422 17.5469L25.3906 17.7656L24.0234 17.9844L23.0703 18.0938L22.0156 18.0703L20.9375 17.8047L20.4844 17.5391H20.4766L20.9531 17.6328L21.8984 17.5781L23.2812 17.25L25.0859 16.8438L26.6406 16.6797L27.9766 16.5703L29.3359 16.7031L31.1328 16.8906L32.4141 17.3828L33.9141 17.9297L34.0859 18.0469L32.2734 17.6875Z" fill="black"/>
<path d="M24.4315 22.3263C24.692 22.2488 24.8504 22.0083 24.7852 21.7891C24.72 21.5699 24.4559 21.455 24.1954 21.5325C23.9348 21.61 23.7765 21.8505 23.8417 22.0697C23.9069 22.2889 24.1709 22.4038 24.4315 22.3263Z" fill="white"/>
<path d="M23.1562 22.2812C23.2684 22.2812 23.3594 22.1903 23.3594 22.0781C23.3594 21.9659 23.2684 21.875 23.1562 21.875C23.0441 21.875 22.9531 21.9659 22.9531 22.0781C22.9531 22.1903 23.0441 22.2812 23.1562 22.2812Z" fill="white"/>
<path d="M23.0313 21.6484C23.1434 21.6484 23.2344 21.5575 23.2344 21.4453C23.2344 21.3331 23.1434 21.2422 23.0313 21.2422C22.9191 21.2422 22.8281 21.3331 22.8281 21.4453C22.8281 21.5575 22.9191 21.6484 23.0313 21.6484Z" fill="white"/>
<path d="M29.6484 22.5391C29.752 22.5391 29.8359 22.4551 29.8359 22.3516C29.8359 22.248 29.752 22.1641 29.6484 22.1641C29.5449 22.1641 29.4609 22.248 29.4609 22.3516C29.4609 22.4551 29.5449 22.5391 29.6484 22.5391Z" fill="white"/>
<path d="M29.625 21.8281C29.7372 21.8281 29.8281 21.7372 29.8281 21.625C29.8281 21.5128 29.7372 21.4219 29.625 21.4219C29.5128 21.4219 29.4219 21.5128 29.4219 21.625C29.4219 21.7372 29.5128 21.8281 29.625 21.8281Z" fill="white"/>
<path d="M30.7422 22.4063C30.945 22.4063 31.1094 22.2419 31.1094 22.0391C31.1094 21.8363 30.945 21.6719 30.7422 21.6719C30.5394 21.6719 30.375 21.8363 30.375 22.0391C30.375 22.2419 30.5394 22.4063 30.7422 22.4063Z" fill="white"/>
</svg>
