<svg width="52" height="52" viewBox="0 0 52 52" fill="none" xmlns="http://www.w3.org/2000/svg">
<g clip-path="url(#clip0_6035_183)">
<path d="M26 0.5C40.0833 0.5 51.5 11.9167 51.5 26C51.5 40.0833 40.0833 51.5 26 51.5C11.9167 51.5 0.5 40.0833 0.5 26C0.5 11.9167 11.9167 0.5 26 0.5Z" fill="#85E047" stroke="#151515"/>
<path d="M35.0338 22.7733L20.8086 11.2004C19.9026 10.4632 18.5469 11.108 18.5469 12.276V18.9557C18.5469 19.3729 18.7348 19.768 19.0584 20.0313L25.0732 24.9246C25.7552 25.4795 25.7552 26.521 25.0732 27.0759L19.0584 31.9693C18.7348 32.2325 18.5469 32.6275 18.5469 33.0448V39.7244C18.5469 40.8925 19.9026 41.5373 20.8086 40.8002L35.0338 29.2271C37.08 27.5625 37.08 24.4379 35.0338 22.7733Z" fill="#151515"/>
</g>
<defs>
<clipPath id="clip0_6035_183">
<rect width="52" height="52" fill="white"/>
</clipPath>
</defs>
</svg>
