<svg width="24" height="24" viewBox="0 0 24 24" fill="none" xmlns="http://www.w3.org/2000/svg">
<path fill-rule="evenodd" clip-rule="evenodd" d="M18.483 19.7902V19.7882L18.501 19.7452L21.5 4.62518V4.57718C21.5 4.20018 21.36 3.87118 21.058 3.67418C20.793 3.50118 20.488 3.48918 20.274 3.50518C20.0748 3.5232 19.8782 3.56345 19.688 3.62518C19.6068 3.65133 19.5268 3.68069 19.448 3.71318L19.435 3.71818L2.71497 10.2772L2.70997 10.2792C2.65914 10.2965 2.60938 10.3169 2.56097 10.3402C2.44206 10.3936 2.32797 10.4572 2.21997 10.5302C2.00497 10.6782 1.59597 11.0262 1.66497 11.5782C1.72197 12.0362 2.03697 12.3262 2.24997 12.4772C2.3757 12.5653 2.51087 12.6391 2.65297 12.6972L2.68497 12.7112L2.69497 12.7142L2.70197 12.7172L5.62797 13.7022C5.61797 13.8852 5.63597 14.0722 5.68497 14.2572L7.14997 19.8162C7.23 20.1192 7.40294 20.3895 7.64449 20.5892C7.88605 20.7889 8.18408 20.9079 8.49675 20.9296C8.80941 20.9512 9.12099 20.8743 9.38774 20.7098C9.65448 20.5453 9.86299 20.3013 9.98397 20.0122L12.272 17.5662L16.201 20.5782L16.257 20.6022C16.614 20.7582 16.947 20.8072 17.252 20.7662C17.557 20.7242 17.799 20.5962 17.981 20.4512C18.1915 20.2805 18.3593 20.0631 18.471 19.8162L18.479 19.7992L18.482 19.7932L18.483 19.7902ZM7.13497 13.8752C7.11875 13.8135 7.1226 13.7483 7.14598 13.6889C7.16936 13.6296 7.21104 13.5792 7.26497 13.5452L17.186 7.24518C17.186 7.24518 17.77 6.89018 17.749 7.24518C17.749 7.24518 17.853 7.30718 17.54 7.59818C17.244 7.87518 10.469 14.4162 9.78297 15.0782C9.74483 15.1152 9.71811 15.1624 9.70597 15.2142L8.59997 19.4342L7.13497 13.8752Z" fill="#87909F"/>
</svg>
