<svg width="48" height="48" viewBox="0 0 48 48" fill="none" xmlns="http://www.w3.org/2000/svg">
<path d="M24 44C35.0457 44 44 35.0457 44 24C44 12.9543 35.0457 4 24 4C12.9543 4 4 12.9543 4 24C4 35.0457 12.9543 44 24 44Z" fill="#0088CC"/>
<path fill-rule="evenodd" clip-rule="evenodd" d="M18.4289 17.2141H29.6432C30.0717 17.2141 30.4289 17.2855 30.8574 17.4998C31.3574 17.7141 31.6432 18.0713 31.786 18.357C31.786 18.357 31.786 18.4284 31.8574 18.4284C32.0717 18.7855 32.2146 19.2141 32.2146 19.7141C32.2146 20.1427 32.1432 20.5713 31.8574 20.9998L24.786 33.1427C24.6432 33.4284 24.3574 33.5713 24.0003 33.5713C23.7146 33.5713 23.4289 33.4284 23.2146 33.1427L16.286 20.9998C16.1432 20.7141 15.8574 20.357 15.8574 19.7855C15.786 19.2855 15.9289 18.857 16.1432 18.4284C16.3574 17.9998 16.7146 17.6427 17.2146 17.4998C17.6432 17.2141 18.1432 17.2141 18.4289 17.2141ZM23.1432 18.9284H18.4289C18.1432 18.9284 18.0003 18.9284 17.9289 18.9998C17.786 19.0713 17.7146 19.1427 17.6432 19.2855C17.5717 19.357 17.5717 19.4998 17.5717 19.6427C17.5717 19.7141 17.6432 19.7855 17.786 20.0713L23.1432 29.357V18.9284ZM24.8574 18.9284V29.4284L30.286 20.0713C30.3574 19.9284 30.3574 19.7855 30.3574 19.6427C30.3574 19.4998 30.3574 19.357 30.286 19.2855C30.2146 19.2141 30.2146 19.1427 30.1432 19.1427L30.0717 19.0713C29.9289 18.9998 29.786 18.9998 29.5717 18.9998H24.8574V18.9284Z" fill="white"/>
</svg>
