<svg width="40" height="40" viewBox="0 0 40 40" fill="none" xmlns="http://www.w3.org/2000/svg">
<path fill-rule="evenodd" clip-rule="evenodd" d="M19.9999 7.69238C21.3152 7.69238 22.6645 7.72623 23.9722 7.78161L25.5168 7.85546L26.9952 7.94315L28.3799 8.037L29.6445 8.13546C31.0171 8.23991 32.3088 8.82536 33.2921 9.78869C34.2754 10.752 34.8872 12.0315 35.0199 13.4016L35.0814 14.0555L35.1968 15.4555C35.3045 16.9062 35.3845 18.4878 35.3845 20.0001C35.3845 21.5124 35.3045 23.0939 35.1968 24.5447L35.0814 25.9447L35.0199 26.5985C34.8872 27.9689 34.2751 29.2486 33.2915 30.2119C32.3079 31.1753 31.0158 31.7606 29.6429 31.8647L28.3814 31.9616L26.9968 32.057L25.5168 32.1447L23.9722 32.2185C22.6488 32.2759 21.3244 32.3056 19.9999 32.3078C18.6753 32.3056 17.3509 32.2759 16.0275 32.2185L14.4829 32.1447L13.0045 32.057L11.6198 31.9616L10.3552 31.8647C8.98264 31.7602 7.69093 31.1748 6.70761 30.2115C5.72429 29.2481 5.11245 27.9687 4.97985 26.5985L4.91831 25.9447L4.80293 24.5447C4.68575 23.0326 4.62314 21.5167 4.61523 20.0001C4.61523 18.4878 4.69523 16.9062 4.80293 15.4555L4.91831 14.0555L4.97985 13.4016C5.1124 12.0317 5.72402 10.7525 6.70702 9.78916C7.69003 8.82586 8.98138 8.24025 10.3537 8.13546L11.6168 8.037L13.0014 7.94315L14.4814 7.85546L16.026 7.78161C17.3499 7.72427 18.6748 7.69452 19.9999 7.69238ZM16.9229 16.2693V23.7308C16.9229 24.4416 17.6922 24.8847 18.3075 24.5308L24.7691 20.8001C24.9097 20.7191 25.0265 20.6026 25.1077 20.4621C25.1889 20.3217 25.2316 20.1623 25.2316 20.0001C25.2316 19.8378 25.1889 19.6785 25.1077 19.538C25.0265 19.3976 24.9097 19.281 24.7691 19.2001L18.3075 15.4708C18.1672 15.3898 18.0079 15.3471 17.8459 15.3472C17.6838 15.3472 17.5246 15.3899 17.3842 15.471C17.2439 15.5521 17.1273 15.6687 17.0464 15.8091C16.9654 15.9495 16.9228 16.1088 16.9229 16.2708V16.2693Z" fill="#85E047"/>
</svg>
