<svg width="40" height="40" viewBox="0 0 40 40" fill="none" xmlns="http://www.w3.org/2000/svg">
<rect width="40" height="40" rx="6" fill="#151515"/>
<path d="M23.9615 27.958L23.8687 27.8846L30.3271 22.7597C32.6318 20.9312 32.6318 17.5917 30.3257 15.762L15.4407 3.95107C15.1543 3.7238 14.8272 3.62151 14.5075 3.62146C13.7318 3.62135 13 4.22321 13 5.1025V11.3777C13 11.9743 13.2743 12.5389 13.7459 12.913L20.3081 18.119C21.0598 18.7158 21.0598 19.8045 20.3081 20.4014L13.7457 25.6086C13.2742 25.9828 13 26.5473 13 27.1438V32.0119C13 33.3106 13.5862 34.4789 14.5221 35.2996C15.3759 36.0482 16.5202 36.5072 17.7802 36.5072C17.7802 36.5072 21.5751 36.5072 25.3701 36.5072C29.165 36.5072 32.96 36.5072 32.96 36.5072C34.4798 36.5072 35.0359 34.536 33.7343 33.7628L23.9615 27.958Z" fill="#85E047"/>
<path d="M5.5 9.9153V6.19929C5.5 5.59356 5.99746 5.10252 6.61111 5.10252H11.8889C12.5025 5.10252 13 5.59356 13 6.19929V9.9153C13 10.7229 12.3367 11.3777 11.5185 11.3777H6.98148C6.16328 11.3777 5.5 10.7229 5.5 9.9153Z" fill="#85E047"/>
<path d="M5.5 32.0119V28.6062C5.5 27.7986 6.16328 27.1439 6.98148 27.1439H11.5185C12.3367 27.1439 13 27.7986 13 28.6062L13 32.0119L5.5 32.0119Z" fill="#85E047"/>
<path d="M12.5355 27.1438H6.8191C6.09058 27.1438 5.47229 26.505 5.91885 25.9368C6.1031 25.7024 6.40958 25.6086 6.71017 25.6086H12.4266C12.8651 25.6086 13.1562 26.2661 13.0544 26.6871C12.9949 26.9334 12.7921 27.1438 12.5355 27.1438Z" fill="#85E047"/>
<path d="M12.4266 12.913H6.71033C6.40974 12.913 6.10326 12.8192 5.91898 12.5848C5.47229 12.0166 6.09068 11.3776 6.81932 11.3776H12.5355C12.7921 11.3776 12.9949 11.5881 13.0544 11.8344C13.1562 12.2554 12.8651 12.913 12.4266 12.913Z" fill="#85E047"/>
<path d="M5.89129 4.10345C6.17654 3.79948 6.58552 3.6214 7.00747 3.62146L14.5075 3.62146C14.0857 3.62152 13.6764 3.79958 13.3913 4.10345C12.9743 4.54783 12.5025 5.10252 11.8889 5.10252H6.61111C5.99746 5.10252 5.47428 4.54783 5.89129 4.10345Z" fill="#85E047"/>
<path d="M7.02209 35.2996C6.08622 34.4789 5.5 33.3106 5.5 32.0119L13 32.0119C13 33.3106 13.5862 34.4789 14.5221 35.2996L7.02209 35.2996Z" fill="#85E047"/>
<path d="M7.00747 3.62146C7.20888 3.62149 7.41323 3.66211 7.60851 3.749C7.83934 3.8517 8.0787 3.95107 8.3319 3.95107H14.43C14.766 3.95107 14.8434 3.62151 14.5075 3.62146L7.00747 3.62146Z" fill="#85E047"/>
<path d="M10.2802 36.5072C9.02024 36.5072 7.87594 36.0482 7.02209 35.2996L14.5221 35.2996C15.3759 36.0482 16.5202 36.5072 17.7802 36.5072L10.2802 36.5072Z" fill="#85E047"/>
<path d="M9.52506 23.0065L12.8082 20.4014L20.3081 20.4014L14.1523 25.286C13.8892 25.4948 13.5617 25.6086 13.2241 25.6086H10.4533C9.05459 25.6086 8.43495 23.8715 9.52506 23.0065Z" fill="#85E047"/>
<path d="M12.8081 18.119L9.52603 15.5152C8.43575 14.6503 9.05535 12.913 10.4541 12.913H13.2243C13.5618 12.913 13.8893 13.0268 14.1524 13.2355L20.3081 18.119H12.8081Z" fill="#85E047"/>
<path d="M12.8082 20.4014C13.5598 19.8045 13.5598 18.7158 12.8081 18.119H20.3081C21.0598 18.7158 21.0598 19.8045 20.3081 20.4014L12.8082 20.4014Z" fill="#85E047"/>
<path d="M10.4002 5.90269L22.8257 15.762L30.3257 15.762L15.7456 4.19303C15.5483 4.03644 15.3026 3.95109 15.0495 3.95109H11.0964C10.0474 3.95109 9.58264 5.25395 10.4002 5.90269Z" fill="#85E047"/>
<path d="M16.3687 27.8846L16.4614 27.958L23.9615 27.958L23.8687 27.8846L16.3687 27.8846Z" fill="#85E047"/>
<path d="M22.827 22.7597L16.3687 27.8846L23.8687 27.8846L30.3271 22.7597L22.827 22.7597Z" fill="#85E047"/>
<path d="M16.4614 27.958L25.97 33.6058C26.143 33.7086 26.341 33.7628 26.5429 33.7628H29.7329C30.8591 33.7628 31.2707 32.2995 30.3058 31.7263L23.9615 27.958L16.4614 27.958Z" fill="#85E047"/>
<path d="M22.8257 15.762C25.1318 17.5917 25.1317 20.9312 22.827 22.7597L30.3271 22.7597C32.6318 20.9312 32.6318 17.5917 30.3257 15.762L22.8257 15.762Z" fill="#85E047"/>
<path d="M33.4257 33.7628H30.1398C29.0406 33.7628 26.5591 36.5072 25.46 36.5072H32.96C34.3724 36.5072 34.9525 34.8046 33.9826 33.9435C33.8325 33.8103 33.6276 33.7628 33.4257 33.7628Z" fill="#85E047"/>
<path d="M16.4615 27.958L16.3687 27.8846L22.8271 22.7597C25.1318 20.9312 25.1318 17.5917 22.8257 15.762L7.9407 3.95107C6.95932 3.17237 5.5 3.86082 5.5 5.1025V11.3776C5.5 11.9743 5.77426 12.5389 6.24588 12.913L12.8081 18.119C13.5598 18.7158 13.5598 19.8045 12.8081 20.4014L6.24571 25.6086C5.77419 25.9828 5.5 26.5472 5.5 27.1438V32.0119C5.5 33.3106 6.08622 34.4789 7.02209 35.2996C7.87594 36.0482 9.02024 36.5072 10.2802 36.5072H25.46C26.9798 36.5072 27.5359 34.536 26.2343 33.7628L16.4615 27.958Z" fill="#151515"/>
<path fill-rule="evenodd" clip-rule="evenodd" d="M16.0314 28.5655L15.1715 27.8857L22.3567 22.184C24.2883 20.6515 24.2888 17.8717 22.3554 16.3377L7.47035 4.52679C6.97966 4.13744 6.25 4.48166 6.25 5.1025V11.3776C6.25 11.7506 6.42141 12.1034 6.71617 12.3373L13.2784 17.5432C14.4027 18.4359 14.4029 20.0842 13.2787 20.9769L6.71607 26.1843C6.42137 26.4182 6.25 26.771 6.25 27.1438V32.0119C6.25 33.0842 6.73267 34.0564 7.52065 34.7474C8.23977 35.3778 9.2075 35.768 10.2802 35.768H25.46C26.2199 35.768 26.498 34.7824 25.8472 34.3959L16.0314 28.5655ZM22.8257 15.762L7.9407 3.95107C6.95932 3.17237 5.5 3.86082 5.5 5.1025V11.3776C5.5 11.9743 5.77426 12.5389 6.24588 12.913L12.8081 18.119C13.5598 18.7158 13.5598 19.8045 12.8081 20.4014L6.24571 25.6086C5.77419 25.9828 5.5 26.5472 5.5 27.1438V32.0119C5.5 33.3106 6.08622 34.4789 7.02209 35.2996C7.87594 36.0482 9.02024 36.5072 10.2802 36.5072H25.46C26.9798 36.5072 27.5359 34.536 26.2343 33.7628L16.4615 27.958L16.3687 27.8846L22.8271 22.7597C25.1318 20.9312 25.1318 17.5917 22.8257 15.762Z" fill="#85E047"/>
<path fill-rule="evenodd" clip-rule="evenodd" d="M16.0314 28.5655L15.1715 27.8857L22.3567 22.184C24.2883 20.6515 24.2888 17.8717 22.3554 16.3377L7.47035 4.52679C6.97966 4.13744 6.25 4.48166 6.25 5.1025V11.3776C6.25 11.7506 6.42141 12.1034 6.71617 12.3373L13.2784 17.5432C14.4027 18.4359 14.4029 20.0842 13.2787 20.9769L6.71607 26.1843C6.42137 26.4182 6.25 26.771 6.25 27.1438V32.0119C6.25 33.0842 6.73267 34.0564 7.52065 34.7474C8.23977 35.3778 9.2075 35.768 10.2802 35.768H25.46C26.2199 35.768 26.498 34.7824 25.8472 34.3959L16.0314 28.5655ZM22.8257 15.762L7.9407 3.95107C6.95932 3.17237 5.5 3.86082 5.5 5.1025V11.3776C5.5 11.9743 5.77426 12.5389 6.24588 12.913L12.8081 18.119C13.5598 18.7158 13.5598 19.8045 12.8081 20.4014L6.24571 25.6086C5.77419 25.9828 5.5 26.5472 5.5 27.1438V32.0119C5.5 33.3106 6.08622 34.4789 7.02209 35.2996C7.87594 36.0482 9.02024 36.5072 10.2802 36.5072H25.46C26.9798 36.5072 27.5359 34.536 26.2343 33.7628L16.4615 27.958L16.3687 27.8846L22.8271 22.7597C25.1318 20.9312 25.1318 17.5917 22.8257 15.762Z" fill="#85E047"/>
<path fill-rule="evenodd" clip-rule="evenodd" d="M19.3582 25.0894C19.4962 25.2573 19.4691 25.5029 19.2976 25.638L11.845 31.5098C11.6735 31.6449 11.4225 31.6184 11.2844 31.4505C11.1464 31.2826 11.1735 31.037 11.345 30.9019L18.7976 25.0301C18.9691 24.895 19.2201 24.9215 19.3582 25.0894Z" fill="#85E047"/>
<path fill-rule="evenodd" clip-rule="evenodd" d="M19.3582 25.0894C19.4962 25.2573 19.4691 25.5029 19.2976 25.638L11.845 31.5098C11.6735 31.6449 11.4225 31.6184 11.2844 31.4505C11.1464 31.2826 11.1735 31.037 11.345 30.9019L18.7976 25.0301C18.9691 24.895 19.2201 24.9215 19.3582 25.0894Z" fill="#85E047"/>
</svg>
