<svg width="20" height="20" viewBox="0 0 20 20" fill="none" xmlns="http://www.w3.org/2000/svg">
<path d="M18.3337 10.0001C18.3337 14.6026 14.6028 18.3334 10.0003 18.3334C5.39783 18.3334 1.66699 14.6026 1.66699 10.0001C1.66699 5.39758 5.39783 1.66675 10.0003 1.66675C14.6028 1.66675 18.3337 5.39758 18.3337 10.0001ZM10.2987 7.81841C9.48866 8.15564 7.86894 8.85369 5.43949 9.91258C5.04449 10.0692 4.83783 10.2226 4.81949 10.3726C4.78783 10.6259 5.10533 10.7259 5.53783 10.8617L5.71949 10.9201C6.14449 11.0584 6.71783 11.2201 7.01533 11.2267C7.28533 11.2323 7.58644 11.1212 7.91866 10.8934C10.1887 9.36008 11.3603 8.58536 11.4337 8.56925C11.4862 8.55758 11.5578 8.54258 11.6062 8.58592C11.6553 8.62925 11.6503 8.71091 11.6453 8.73341C11.6137 8.86758 10.367 10.0267 9.72199 10.6259C9.53088 10.8059 9.34116 10.9873 9.15283 11.1701C8.75783 11.5509 8.46116 11.8367 9.16949 12.3034C9.88699 12.7767 10.6112 13.2484 11.3112 13.7476C11.6562 13.9942 11.9662 14.2142 12.3495 14.1801C12.572 14.1592 12.802 13.9501 12.9187 13.3251C13.1953 11.8501 13.7378 8.65175 13.8628 7.33341C13.8701 7.22406 13.8653 7.11424 13.8487 7.00591C13.8388 6.91873 13.7966 6.83843 13.7303 6.78091C13.6303 6.69925 13.4762 6.68258 13.4078 6.68341C13.0945 6.68925 12.6137 6.85591 10.2995 7.81841" fill="#85E047"/>
</svg>
