<svg width="20" height="20" viewBox="0 0 20 20" fill="none" xmlns="http://www.w3.org/2000/svg">
<path d="M10 2C7.87827 2 5.84344 2.84285 4.34315 4.34315C2.84285 5.84344 2 7.87827 2 10C2 12.1217 2.84285 14.1566 4.34315 15.6569C5.84344 17.1571 7.87827 18 10 18C12.1217 18 14.1566 17.1571 15.6569 15.6569C17.1571 14.1566 18 12.1217 18 10C18 7.87827 17.1571 5.84344 15.6569 4.34315C14.1566 2.84285 12.1217 2 10 2ZM2.98667 10.6044H5.21778C5.25333 11.4133 5.36622 12.2169 5.55556 13.0044H3.63556C3.27824 12.2494 3.0585 11.4367 2.98667 10.6044ZM10.6044 5.80444V3.05778C11.4611 3.38331 12.1649 4.01744 12.5778 4.83556C12.7603 5.1443 12.9203 5.4643 13.0578 5.79556L10.6044 5.80444ZM13.4667 7.00444C13.6729 7.78933 13.7956 8.59378 13.8311 9.40444H10.6044V7.00444H13.4667ZM9.39556 3.05778V5.80444H6.94222C7.07926 5.47347 7.23967 5.15266 7.42222 4.84444C7.83331 4.02298 8.53741 3.38548 9.39556 3.05778ZM9.39556 7.00444V9.40444H6.17778C6.21333 8.59378 6.336 7.78933 6.54222 7.00444H9.39556ZM5.21778 9.39556H2.98667C3.0585 8.56333 3.27824 7.75059 3.63556 6.99556H5.55556C5.36514 7.78266 5.25201 8.58647 5.21778 9.39556ZM6.17778 10.6044H9.39556V13.0044H6.54222C6.33682 12.2195 6.21466 11.415 6.17778 10.6044ZM9.40444 14.16V16.9067C8.54784 16.5811 7.84395 15.947 7.43111 15.1289C7.24856 14.8207 7.08815 14.4999 6.95111 14.1689L9.40444 14.16ZM10.6044 16.9067V14.2044H13.0578C12.9207 14.5354 12.7603 14.8562 12.5778 15.1644C12.1649 15.9826 11.4611 16.6167 10.6044 16.9422V16.9067ZM10.6044 12.96V10.56H13.8222C13.7853 11.3706 13.6632 12.175 13.4578 12.96H10.6044ZM14.7911 10.56H17.0222C16.9504 11.3922 16.7307 12.205 16.3733 12.96H14.4444C14.6311 12.1867 14.744 11.3982 14.7822 10.6044L14.7911 10.56ZM14.7911 9.36C14.7511 8.56554 14.635 7.77675 14.4444 7.00444H16.3644C16.7227 7.76 16.9422 8.57244 17.0133 9.40444L14.7911 9.36ZM15.68 5.80444H14.0889C13.8013 4.99569 13.384 4.23914 12.8533 3.56444C13.9595 4.06096 14.9202 4.83205 15.6444 5.80444H15.68ZM7.14667 3.56444C6.61602 4.23914 6.19871 4.99569 5.91111 5.80444H4.35556C5.07975 4.83205 6.04055 4.06096 7.14667 3.56444ZM4.34667 14.2311H5.91111C6.19871 15.0399 6.61602 15.7964 7.14667 16.4711C6.03749 15.9671 5.0764 15.1866 4.35556 14.2044L4.34667 14.2311ZM12.8444 16.4711C13.3751 15.7964 13.7924 15.0399 14.08 14.2311H15.6444C14.9158 15.1905 13.9554 15.949 12.8533 16.4356L12.8444 16.4711Z" fill="#85E047"/>
</svg>
