<svg width="20" height="20" viewBox="0 0 20 20" fill="none" xmlns="http://www.w3.org/2000/svg">
<path fill-rule="evenodd" clip-rule="evenodd" d="M10.0003 3.33325C10.7128 3.33325 11.4437 3.35159 12.152 3.38159L12.9887 3.42159L13.7895 3.46909L14.5395 3.51992L15.2245 3.57325C15.968 3.62983 16.6677 3.94695 17.2003 4.46875C17.7329 4.99056 18.0643 5.68358 18.1362 6.42575L18.1695 6.77992L18.232 7.53825C18.2903 8.32408 18.3337 9.18075 18.3337 9.99992C18.3337 10.8191 18.2903 11.6758 18.232 12.4616L18.1695 13.2199L18.1362 13.5741C18.0643 14.3164 17.7328 15.0095 17.2 15.5313C16.6672 16.0532 15.9673 16.3702 15.2237 16.4266L14.5403 16.4791L13.7903 16.5308L12.9887 16.5783L12.152 16.6183C11.4352 16.6493 10.7178 16.6654 10.0003 16.6666C9.28285 16.6654 8.56547 16.6493 7.84866 16.6183L7.01199 16.5783L6.21116 16.5308L5.46116 16.4791L4.77616 16.4266C4.03267 16.37 3.33299 16.0529 2.80036 15.5311C2.26773 15.0093 1.93632 14.3163 1.86449 13.5741L1.83116 13.2199L1.76866 12.4616C1.70519 11.6425 1.67128 10.8214 1.66699 9.99992C1.66699 9.18075 1.71033 8.32408 1.76866 7.53825L1.83116 6.77992L1.86449 6.42575C1.93629 5.68371 2.26759 4.9908 2.80004 4.46901C3.3325 3.94722 4.03199 3.63002 4.77533 3.57325L5.45949 3.51992L6.20949 3.46909L7.01116 3.42159L7.84783 3.38159C8.56491 3.35052 9.28257 3.33441 10.0003 3.33325ZM8.33366 7.97908V12.0208C8.33366 12.4058 8.75033 12.6458 9.08366 12.4541L12.5837 10.4333C12.6598 10.3894 12.7231 10.3263 12.7671 10.2502C12.8111 10.1741 12.8342 10.0878 12.8342 9.99992C12.8342 9.91204 12.8111 9.82572 12.7671 9.74964C12.7231 9.67356 12.6598 9.61043 12.5837 9.56658L9.08366 7.54659C9.00763 7.50269 8.92137 7.47958 8.83358 7.4796C8.74578 7.47961 8.65954 7.50274 8.58352 7.54667C8.5075 7.59059 8.44439 7.65375 8.40053 7.72981C8.35666 7.80586 8.3336 7.89212 8.33366 7.97992V7.97908Z" fill="#85E047"/>
</svg>
