<svg width="284" height="284" viewBox="0 0 284 284" fill="none" xmlns="http://www.w3.org/2000/svg">
<mask id="path-1-inside-1_1726_1916" fill="white">
<path d="M142 8C142 3.58172 145.585 -0.0235021 149.996 0.225237C177.156 1.7567 203.367 11.0642 225.466 27.1196C247.564 43.1749 264.516 65.2272 274.365 90.5844C275.965 94.7029 273.644 99.2264 269.442 100.592L152.472 138.597C147.303 140.277 142 136.424 142 130.989V8Z"/>
</mask>
<path d="M142 8C142 3.58172 145.585 -0.0235021 149.996 0.225237C177.156 1.7567 203.367 11.0642 225.466 27.1196C247.564 43.1749 264.516 65.2272 274.365 90.5844C275.965 94.7029 273.644 99.2264 269.442 100.592L152.472 138.597C147.303 140.277 142 136.424 142 130.989V8Z" fill="#85E047" stroke="#151515" stroke-width="4" mask="url(#path-1-inside-1_1726_1916)"/>
<mask id="path-2-inside-2_1726_1916" fill="white">
<path d="M269.442 100.592C273.644 99.2264 278.18 101.522 279.307 105.794C285.564 129.524 285.564 154.476 279.307 178.206C278.18 182.478 273.644 184.774 269.442 183.408L217.133 166.412C212.931 165.047 210.68 160.537 211.564 156.208C213.479 146.834 213.479 137.166 211.564 127.792C210.68 123.463 212.931 118.953 217.133 117.588L269.442 100.592Z"/>
</mask>
<path d="M269.442 100.592C273.644 99.2264 278.18 101.522 279.307 105.794C285.564 129.524 285.564 154.476 279.307 178.206C278.18 182.478 273.644 184.774 269.442 183.408L217.133 166.412C212.931 165.047 210.68 160.537 211.564 156.208C213.479 146.834 213.479 137.166 211.564 127.792C210.68 123.463 212.931 118.953 217.133 117.588L269.442 100.592Z" fill="#B9CFD4" stroke="#151515" stroke-width="4" mask="url(#path-2-inside-2_1726_1916)"/>
<mask id="path-3-inside-3_1726_1916" fill="white">
<path d="M269.442 183.408C273.644 184.774 275.965 189.297 274.365 193.415C270.909 202.312 266.565 210.839 261.398 218.864C259.006 222.579 253.983 223.36 250.408 220.763L205.912 188.435C202.338 185.838 201.59 180.853 203.768 177.01C204.805 175.181 205.76 173.307 206.63 171.393C208.459 167.372 212.931 165.047 217.133 166.412L269.442 183.408Z"/>
</mask>
<path d="M269.442 183.408C273.644 184.774 275.965 189.297 274.365 193.415C270.909 202.312 266.565 210.839 261.398 218.864C259.006 222.579 253.983 223.36 250.408 220.763L205.912 188.435C202.338 185.838 201.59 180.853 203.768 177.01C204.805 175.181 205.76 173.307 206.63 171.393C208.459 167.372 212.931 165.047 217.133 166.412L269.442 183.408Z" fill="#6F58C9" stroke="#151515" stroke-width="4" mask="url(#path-3-inside-3_1726_1916)"/>
<mask id="path-4-inside-4_1726_1916" fill="white">
<path d="M250.408 220.763C253.983 223.36 254.792 228.38 251.998 231.802C234.795 252.875 211.858 268.609 185.88 277.05C159.902 285.491 132.098 286.243 105.794 279.307C101.522 278.18 99.2264 273.644 100.592 269.442L117.588 217.133C118.953 212.931 123.463 210.68 127.792 211.564C139.77 214.011 152.227 213.331 163.94 209.525C175.654 205.719 186.131 198.947 194.383 189.927C197.366 186.667 202.338 185.838 205.912 188.435L250.408 220.763Z"/>
</mask>
<path d="M250.408 220.763C253.983 223.36 254.792 228.38 251.998 231.802C234.795 252.875 211.858 268.609 185.88 277.05C159.902 285.491 132.098 286.243 105.794 279.307C101.522 278.18 99.2264 273.644 100.592 269.442L117.588 217.133C118.953 212.931 123.463 210.68 127.792 211.564C139.77 214.011 152.227 213.331 163.94 209.525C175.654 205.719 186.131 198.947 194.383 189.927C197.366 186.667 202.338 185.838 205.912 188.435L250.408 220.763Z" fill="#F56476" stroke="#151515" stroke-width="4" mask="url(#path-4-inside-4_1726_1916)"/>
<mask id="path-5-inside-5_1726_1916" fill="white">
<path d="M100.592 269.442C99.2264 273.644 94.7024 275.964 90.5838 274.365C58.1439 261.765 31.3606 237.64 15.4771 206.467C-0.406441 175.294 -4.18147 139.445 4.69297 105.794C5.81966 101.522 10.3564 99.2264 14.5584 100.592L66.8665 117.588C71.0686 118.953 73.3202 123.463 72.4359 127.792C69.2349 143.462 71.4067 159.844 78.7385 174.233C86.0703 188.623 98.0471 200.009 112.606 206.63C116.628 208.459 118.953 212.931 117.588 217.133L100.592 269.442Z"/>
</mask>
<path d="M100.592 269.442C99.2264 273.644 94.7024 275.964 90.5838 274.365C58.1439 261.765 31.3606 237.64 15.4771 206.467C-0.406441 175.294 -4.18147 139.445 4.69297 105.794C5.81966 101.522 10.3564 99.2264 14.5584 100.592L66.8665 117.588C71.0686 118.953 73.3202 123.463 72.4359 127.792C69.2349 143.462 71.4067 159.844 78.7385 174.233C86.0703 188.623 98.0471 200.009 112.606 206.63C116.628 208.459 118.953 212.931 117.588 217.133L100.592 269.442Z" fill="#F4A261" stroke="#151515" stroke-width="4" mask="url(#path-5-inside-5_1726_1916)"/>
<mask id="path-6-inside-6_1726_1916" fill="white">
<path d="M14.5584 100.592C10.3564 99.2264 8.03542 94.7029 9.63514 90.5844C19.4845 65.2272 36.4362 43.1749 58.5345 27.1196C80.6328 11.0642 106.844 1.7567 134.004 0.225237C138.415 -0.0235019 142 3.58172 142 8V63C142 67.4183 138.407 70.9534 134.017 71.4502C121.868 72.8249 110.231 77.3204 100.267 84.5598C90.3031 91.7992 82.4317 101.477 77.3701 112.606C75.541 116.628 71.0686 118.953 66.8665 117.588L14.5584 100.592Z"/>
</mask>
<path d="M14.5584 100.592C10.3564 99.2264 8.03542 94.7029 9.63514 90.5844C19.4845 65.2272 36.4362 43.1749 58.5345 27.1196C80.6328 11.0642 106.844 1.7567 134.004 0.225237C138.415 -0.0235019 142 3.58172 142 8V63C142 67.4183 138.407 70.9534 134.017 71.4502C121.868 72.8249 110.231 77.3204 100.267 84.5598C90.3031 91.7992 82.4317 101.477 77.3701 112.606C75.541 116.628 71.0686 118.953 66.8665 117.588L14.5584 100.592Z" fill="#3372C7" stroke="#151515" stroke-width="4" mask="url(#path-6-inside-6_1726_1916)"/>
</svg>
